{"glyphs":{"0":{"ha":642,"x_min":0,"x_max":536,"o":"m 3 699 q 26 797 3 749 q 86 882 49 844 q 172 942 124 919 q 269 965 219 965 q 367 942 319 965 q 453 881 415 919 q 513 795 490 843 q 536 697 536 747 l 536 269 q 513 171 536 219 q 452 85 490 122 q 366 24 414 47 q 268 1 318 1 q 169 24 218 1 q 83 85 121 47 q 23 170 46 122 q 0 268 0 218 l 3 699 m 113 274 q 126 215 113 243 q 163 163 140 186 q 213 126 185 140 q 272 113 242 113 q 331 126 301 113 q 382 163 360 140 q 418 213 404 185 q 432 272 432 242 l 432 700 q 418 758 432 729 q 381 810 404 788 q 330 846 358 832 q 271 860 301 860 q 212 846 240 860 q 160 809 183 832 q 124 758 138 786 q 110 699 110 729 l 113 274 z "},"1":{"ha":642,"x_min":0,"x_max":535,"o":"m 0 107 l 214 107 l 214 749 l 107 642 l 0 642 l 0 749 l 214 963 l 321 963 l 321 107 l 535 107 l 535 0 l 0 0 l 0 107 z "},"2":{"ha":642,"x_min":0,"x_max":536,"o":"m 1 108 l 429 589 l 429 749 q 420 788 429 769 q 396 822 411 807 q 362 847 381 838 q 322 856 343 856 l 215 856 q 176 847 196 856 q 142 822 157 838 q 117 788 126 807 q 108 749 108 769 l 108 642 l 1 642 l 1 749 q 19 827 1 789 q 68 896 38 865 q 137 944 99 926 q 215 963 175 963 l 322 963 q 401 944 363 963 q 469 896 439 926 q 518 827 500 865 q 536 749 536 789 l 536 535 l 161 107 l 535 107 l 535 0 l 0 0 l 1 108 z "},"3":{"ha":642,"x_min":0,"x_max":535,"o":"m 107 214 q 116 175 107 194 q 140 140 125 156 q 175 116 156 125 q 214 107 194 107 l 321 107 q 360 116 342 107 q 394 140 379 125 q 419 175 410 156 q 428 214 428 194 l 428 321 q 419 360 428 342 q 394 394 410 379 q 360 419 379 410 q 321 428 342 428 l 107 428 l 107 535 l 428 856 l 0 856 l 0 963 l 535 963 l 535 811 l 258 535 l 321 535 q 399 517 361 535 q 468 468 438 499 q 517 399 499 438 q 535 321 535 361 l 535 214 q 517 135 535 174 q 468 67 499 97 q 399 18 438 36 q 321 0 361 0 l 214 0 q 135 18 174 0 q 67 67 97 36 q 18 135 36 97 q 0 214 0 174 l 107 214 z "},"4":{"ha":642,"x_min":0,"x_max":535,"o":"m 321 214 l 0 214 l 0 321 l 321 963 l 428 963 l 428 321 l 535 321 l 535 214 l 428 214 l 428 0 l 321 0 l 321 214 m 131 321 l 321 321 l 321 700 l 131 321 z "},"5":{"ha":642,"x_min":0,"x_max":535,"o":"m 107 214 q 116 175 107 194 q 140 140 125 156 q 175 116 156 125 q 214 107 194 107 l 321 107 q 360 116 342 107 q 394 140 379 125 q 419 175 410 156 q 428 214 428 194 l 428 428 q 419 467 428 449 q 394 501 410 486 q 360 526 379 517 q 321 535 342 535 q 282 526 301 535 q 247 501 263 517 q 223 467 232 486 q 214 428 214 449 l 0 428 l 0 963 l 535 963 l 535 856 l 107 856 l 107 535 l 136 535 q 214 613 164 583 q 321 642 264 642 q 399 624 361 642 q 468 575 438 606 q 517 506 499 544 q 535 428 535 468 l 535 214 q 517 135 535 174 q 468 67 499 97 q 399 18 438 36 q 321 0 361 0 l 214 0 q 135 18 174 0 q 67 67 97 36 q 18 135 36 97 q 0 214 0 174 l 107 214 z "},"6":{"ha":642,"x_min":0,"x_max":535,"o":"m 0 749 q 18 827 0 789 q 67 896 36 865 q 135 944 97 926 q 214 963 174 963 l 321 963 q 399 944 361 963 q 468 896 438 926 q 517 827 499 865 q 535 749 535 789 l 428 749 q 419 788 428 769 q 394 822 410 807 q 360 847 379 838 q 321 856 342 856 l 214 856 q 175 847 194 856 q 140 822 156 838 q 116 788 125 807 q 107 749 107 769 l 107 535 l 321 535 q 399 517 361 535 q 468 468 438 499 q 517 399 499 438 q 535 321 535 361 l 535 214 q 517 135 535 174 q 468 67 499 97 q 399 18 438 36 q 321 0 361 0 l 214 0 q 135 18 174 0 q 67 67 97 36 q 18 135 36 97 q 0 214 0 174 l 0 749 m 107 214 q 116 175 107 194 q 140 140 125 156 q 175 116 156 125 q 214 107 194 107 l 321 107 q 360 116 342 107 q 394 140 379 125 q 419 175 410 156 q 428 214 428 194 l 428 321 q 419 360 428 342 q 394 394 410 379 q 360 419 379 410 q 321 428 342 428 l 107 428 l 107 214 z "},"7":{"ha":642,"x_min":0,"x_max":535,"o":"m 107 239 l 415 856 l 0 856 l 0 963 l 535 963 l 535 856 l 214 214 l 214 0 l 107 0 l 107 239 z "},"8":{"ha":642,"x_min":0,"x_max":535,"o":"m 214 3 q 135 21 174 3 q 67 69 97 39 q 18 138 36 100 q 0 217 0 176 l 0 324 q 19 410 0 368 q 72 483 38 453 q 19 555 38 513 q 0 643 0 597 l 0 750 q 18 828 0 790 q 67 897 36 867 q 135 946 97 928 q 214 964 174 964 l 321 964 q 399 946 361 964 q 468 897 438 928 q 517 828 499 867 q 535 750 535 790 l 535 643 q 516 555 535 597 q 463 482 497 513 q 516 409 497 451 q 535 321 535 367 l 535 214 q 517 135 535 174 q 468 67 499 97 q 399 18 438 36 q 321 0 361 0 l 214 3 m 321 110 q 360 119 342 110 q 394 143 379 128 q 419 178 410 158 q 428 217 428 197 l 428 324 q 419 363 428 344 q 394 397 410 382 q 360 422 379 413 q 321 431 342 431 l 214 431 q 175 422 194 431 q 140 397 156 413 q 116 363 125 382 q 107 324 107 344 l 107 217 q 116 178 107 197 q 140 143 125 158 q 175 119 156 128 q 214 110 194 110 l 321 110 m 321 538 q 360 547 342 538 q 394 571 379 556 q 419 606 410 586 q 428 644 428 625 l 428 751 q 419 791 428 772 q 394 825 410 810 q 360 849 379 840 q 321 858 342 858 l 214 858 q 175 849 194 858 q 140 825 156 840 q 116 791 125 810 q 107 751 107 772 l 107 644 q 116 606 107 625 q 140 571 125 586 q 175 547 156 556 q 214 538 194 538 l 321 538 z "},"9":{"ha":642,"x_min":0,"x_max":535,"o":"m 107 214 q 116 175 107 194 q 140 140 125 156 q 175 116 156 125 q 214 107 194 107 l 321 107 q 360 116 342 107 q 394 140 379 125 q 419 175 410 156 q 428 214 428 194 l 428 428 l 214 428 q 135 446 174 428 q 67 494 97 464 q 18 563 36 525 q 0 642 0 601 l 0 749 q 18 827 0 789 q 67 896 36 865 q 135 944 97 926 q 214 963 174 963 l 321 963 q 399 944 361 963 q 468 896 438 926 q 517 827 499 865 q 535 749 535 789 l 535 214 q 517 135 535 174 q 468 67 499 97 q 399 18 438 36 q 321 0 361 0 l 214 0 q 135 18 174 0 q 67 67 97 36 q 18 135 36 97 q 0 214 0 174 l 107 214 m 428 749 q 419 788 428 769 q 394 822 410 807 q 360 847 379 838 q 321 856 342 856 l 214 856 q 175 847 194 856 q 140 822 156 838 q 116 788 125 807 q 107 749 107 769 l 107 642 q 116 603 107 622 q 140 568 125 583 q 175 544 156 553 q 214 535 194 535 l 428 535 l 428 749 z "}," ":{"ha":642,"x_min":0,"x_max":0,"o":""},"#":{"ha":642,"x_min":0,"x_max":535,"o":"m 107 321 l 0 321 l 0 428 l 107 428 l 107 535 l 0 535 l 0 642 l 107 642 l 107 856 l 214 856 l 214 642 l 321 642 l 321 856 l 428 856 l 428 642 l 535 642 l 535 535 l 428 535 l 428 428 l 535 428 l 535 321 l 428 321 l 428 107 l 321 107 l 321 321 l 214 321 l 214 107 l 107 107 l 107 321 m 321 428 l 321 535 l 214 535 l 214 428 l 321 428 z "},"$":{"ha":642,"x_min":0,"x_max":535,"o":"m 0 214 l 214 214 l 214 428 q 135 446 174 428 q 67 494 97 464 q 18 563 36 525 q 0 642 0 601 q 18 720 0 682 q 67 789 36 758 q 135 838 97 819 q 214 856 174 856 l 214 963 l 321 963 l 321 856 l 535 856 l 535 749 l 321 749 l 321 535 q 399 517 361 535 q 468 468 438 499 q 517 399 499 438 q 535 321 535 361 q 517 242 535 281 q 468 174 499 204 q 399 125 438 143 q 321 107 361 107 l 321 0 l 214 0 l 214 107 l 0 107 l 0 214 m 321 214 q 360 223 342 214 q 394 247 379 232 q 419 282 410 263 q 428 321 428 301 q 419 360 428 342 q 394 394 410 379 q 360 419 379 410 q 321 428 342 428 l 321 214 m 214 749 q 175 740 194 749 q 140 715 156 731 q 116 681 125 700 q 107 642 107 663 q 116 603 107 622 q 140 568 125 583 q 175 544 156 553 q 214 535 194 535 l 214 749 z "},"%":{"ha":642,"x_min":8,"x_max":547,"o":"m 378 4 q 319 18 347 4 q 267 54 290 32 q 231 105 244 76 q 217 164 217 133 q 231 222 217 193 q 267 274 244 251 q 317 310 289 296 q 376 324 346 324 q 435 310 406 324 q 486 273 464 296 q 522 222 508 250 q 536 163 536 193 q 522 103 536 132 q 485 52 508 75 q 434 15 463 29 q 375 1 406 1 l 378 4 m 381 114 q 417 131 400 114 q 433 167 433 147 q 416 203 433 186 q 379 219 399 219 q 342 202 358 219 q 325 165 325 185 q 342 128 325 144 q 378 111 358 111 l 381 114 m 169 653 q 110 667 139 653 q 59 703 82 681 q 22 753 36 725 q 8 813 8 782 q 22 871 8 842 q 58 922 36 900 q 109 958 81 944 q 168 972 138 972 q 226 958 197 972 q 278 922 256 944 q 314 870 300 899 q 328 811 328 842 q 314 752 328 781 q 277 701 300 724 q 226 664 254 678 q 167 650 197 650 l 169 653 m 172 763 q 208 779 192 763 q 225 815 225 796 q 208 851 225 835 q 171 868 190 868 q 133 851 150 868 q 117 814 117 833 q 133 776 117 793 q 169 760 150 760 l 172 763 m 13 15 l 440 978 l 547 978 l 119 15 l 13 15 z "},"&":{"ha":642,"x_min":3,"x_max":535,"o":"m 421 0 l 385 76 l 360 54 q 293 14 331 28 q 217 0 256 0 q 138 18 176 0 q 69 67 100 36 q 21 135 39 97 q 3 214 3 174 q 16 288 3 251 q 53 351 29 324 l 182 507 l 125 628 q 110 696 110 661 q 124 754 110 725 q 160 806 138 783 q 210 842 182 828 q 269 856 239 856 q 328 842 299 856 q 379 805 357 828 q 415 753 401 782 q 429 694 429 725 q 392 592 429 638 l 306 489 l 417 251 l 535 357 l 535 214 l 464 150 l 535 0 l 421 0 m 233 399 l 136 282 q 111 214 111 254 q 120 175 111 194 q 144 140 129 156 q 179 116 160 125 q 218 107 199 107 q 256 115 238 107 q 289 135 274 122 l 338 178 l 233 399 m 313 661 q 325 696 325 675 q 308 732 325 715 q 271 749 290 749 q 233 731 250 749 q 217 694 217 714 q 222 672 217 686 l 258 596 l 313 661 z "},"'":{"ha":642,"x_min":214,"x_max":321,"o":"m 214 963 l 321 963 l 321 642 l 214 642 l 214 963 z "},"(":{"ha":642,"x_min":113,"x_max":428,"o":"m 293 -107 q 158 173 203 21 q 113 481 113 325 q 158 790 113 638 q 293 1069 203 942 l 428 1069 q 274 794 325 947 q 222 481 222 640 q 274 169 222 322 q 428 -107 325 15 l 293 -107 z "},")":{"ha":642,"x_min":107,"x_max":422,"o":"m 107 -107 q 261 169 210 15 q 313 481 313 322 q 261 794 313 640 q 107 1069 210 947 l 242 1069 q 377 790 332 942 q 422 481 422 638 q 377 173 422 325 q 242 -107 332 21 l 107 -107 z "},"*":{"ha":642,"x_min":0,"x_max":535,"o":"m 214 353 l 75 214 l 0 214 l 0 289 l 192 481 l 0 672 l 0 747 l 75 747 l 214 608 l 214 854 l 321 854 l 321 608 l 460 747 l 535 747 l 535 672 l 343 481 l 535 289 l 535 214 l 460 214 l 321 353 l 321 107 l 214 107 l 214 353 z "},"+":{"ha":642,"x_min":0,"x_max":535,"o":"m 214 428 l 0 428 l 0 535 l 214 535 l 214 749 l 321 749 l 321 535 l 535 535 l 535 428 l 321 428 l 321 214 l 214 214 l 214 428 z "},",":{"ha":642,"x_min":107,"x_max":428,"o":"m 107 0 l 214 107 l 214 214 l 428 214 l 428 107 l 214 -107 l 107 -107 l 107 0 z "},"−":{"ha":642,"x_min":0,"x_max":535,"o":"m 0 535 l 535 535 l 535 428 l 0 428 l 0 535 z "},".":{"ha":642,"x_min":161,"x_max":375,"o":"m 268 -53 q 229 -44 249 -53 q 194 -19 210 -35 q 170 15 179 -4 q 161 54 161 35 q 170 94 161 75 q 194 128 179 113 q 229 152 210 143 q 268 161 249 161 q 308 152 289 161 q 342 128 326 143 q 366 94 357 113 q 375 54 375 75 q 366 15 375 35 q 342 -19 357 -4 q 308 -44 326 -35 q 268 -53 289 -53 z "},"/":{"ha":642,"x_min":0,"x_max":535,"o":"m 428 963 l 535 963 l 107 0 l 0 0 l 428 963 z "},":":{"ha":642,"x_min":161,"x_max":375,"o":"m 268 -53 q 229 -44 249 -53 q 194 -19 210 -35 q 170 15 179 -4 q 161 54 161 35 q 170 94 161 75 q 194 128 179 113 q 229 152 210 143 q 268 161 249 161 q 308 152 289 161 q 342 128 326 143 q 366 94 357 113 q 375 54 375 75 q 366 15 375 35 q 342 -19 357 -4 q 308 -44 326 -35 q 268 -53 289 -53 m 268 482 q 229 491 249 482 q 194 515 210 500 q 170 550 179 531 q 161 589 161 569 q 170 628 161 610 q 194 663 179 647 q 229 687 210 678 q 268 696 249 696 q 308 687 289 696 q 342 663 326 678 q 366 628 357 647 q 375 589 375 610 q 366 550 375 569 q 342 515 357 531 q 308 491 326 500 q 268 482 289 482 z "},";":{"ha":642,"x_min":107,"x_max":428,"o":"m 107 0 l 214 107 l 214 214 l 428 214 l 428 107 l 214 -107 l 107 -107 l 107 0 m 268 482 q 229 491 249 482 q 194 515 210 500 q 170 550 179 531 q 161 589 161 569 q 170 628 161 610 q 194 663 179 647 q 229 687 210 678 q 268 696 249 696 q 308 687 289 696 q 342 663 326 678 q 366 628 357 647 q 375 589 375 610 q 366 550 375 569 q 342 515 357 531 q 308 491 326 500 q 268 482 289 482 z "},"<":{"ha":642,"x_min":4,"x_max":538,"o":"m 4 483 l 485 964 l 538 964 l 538 857 l 163 482 l 536 107 l 536 0 l 482 0 l 4 483 z "},"=":{"ha":642,"x_min":0,"x_max":535,"o":"m 0 321 l 535 321 l 535 214 l 0 214 l 0 321 m 0 642 l 535 642 l 535 535 l 0 535 l 0 642 z "},">":{"ha":642,"x_min":0,"x_max":536,"o":"m 378 483 l 3 857 l 3 964 l 56 964 l 536 482 l 54 0 l 0 0 l 0 107 l 378 483 z "},"?":{"ha":642,"x_min":4,"x_max":539,"o":"m 271 4 q 233 21 250 4 q 217 57 217 38 q 233 93 217 76 q 269 110 250 110 q 306 92 289 110 q 322 56 322 75 q 305 18 322 35 q 268 1 288 1 l 271 4 m 218 371 l 432 585 l 432 754 q 423 794 432 775 q 399 828 414 813 q 365 852 383 843 q 325 861 346 861 l 218 861 q 179 852 199 861 q 144 828 160 843 q 120 794 129 813 q 111 754 111 775 l 111 647 l 4 647 l 4 754 q 22 833 4 794 q 71 901 40 871 q 140 950 101 932 q 218 968 178 968 l 325 968 q 403 950 365 968 q 472 901 442 932 q 521 833 503 871 q 539 754 539 794 l 539 540 l 325 326 l 325 219 l 218 219 l 218 371 z "},"@":{"ha":642,"x_min":0,"x_max":535,"o":"m 214 0 q 135 18 174 0 q 67 67 97 36 q 18 135 36 97 q 0 214 0 174 l 0 749 q 18 827 0 789 q 67 896 36 865 q 135 944 97 926 q 214 963 174 963 l 321 963 q 399 944 361 963 q 468 896 438 926 q 517 827 499 865 q 535 749 535 789 l 535 214 l 428 214 q 349 232 388 214 q 281 281 311 250 q 232 349 250 311 q 214 428 214 388 q 232 506 214 468 q 281 575 250 544 q 349 624 311 606 q 428 642 388 642 l 428 749 q 419 788 428 769 q 394 822 410 807 q 360 847 379 838 q 321 856 342 856 l 214 856 q 175 847 194 856 q 140 822 156 838 q 116 788 125 807 q 107 749 107 769 l 107 214 q 116 175 107 194 q 140 140 125 156 q 175 116 156 125 q 214 107 194 107 l 535 107 l 535 0 l 214 0 m 428 535 q 389 526 408 535 q 354 501 369 517 q 330 467 339 486 q 321 428 321 449 q 330 389 321 408 q 354 354 339 369 q 389 330 369 339 q 428 321 408 321 l 428 535 z "},"A":{"ha":642,"x_min":0,"x_max":535,"o":"m 1 688 l 268 954 l 535 686 l 535 0 l 428 0 l 428 321 l 107 321 l 107 0 l 0 0 l 1 688 m 431 431 l 431 644 l 269 804 l 108 643 l 108 429 l 431 431 z "},"B":{"ha":642,"x_min":0,"x_max":535,"o":"m 0 964 l 321 964 q 399 946 361 964 q 468 897 438 928 q 517 828 499 867 q 535 750 535 790 l 535 643 q 533 581 535 603 q 526 543 532 558 q 504 515 519 528 q 463 482 489 503 q 504 449 489 461 q 526 421 519 436 q 533 383 532 406 q 535 321 535 361 l 535 214 q 517 135 535 174 q 468 67 499 97 q 399 18 438 36 q 321 0 361 0 l 0 0 l 0 964 m 321 108 q 360 117 342 108 q 394 142 379 126 q 419 176 410 157 q 428 215 428 196 l 428 322 q 419 362 428 343 q 394 396 410 381 q 360 420 379 411 q 321 429 342 429 l 107 429 l 107 108 l 321 108 m 321 536 q 360 545 342 536 q 394 569 379 554 q 419 604 410 585 q 428 643 428 624 l 428 750 q 419 790 428 771 q 394 824 410 808 q 360 848 379 839 q 321 857 342 857 l 107 857 l 107 536 l 321 536 z "},"C":{"ha":642,"x_min":0,"x_max":535,"o":"m 0 749 q 18 827 0 789 q 67 896 36 865 q 135 944 97 926 q 214 963 174 963 l 321 963 q 399 944 361 963 q 468 896 438 926 q 517 827 499 865 q 535 749 535 789 l 428 749 q 419 788 428 769 q 394 822 410 807 q 360 847 379 838 q 321 856 342 856 l 214 856 q 175 847 194 856 q 140 822 156 838 q 116 788 125 807 q 107 749 107 769 l 107 214 q 116 175 107 194 q 140 140 125 156 q 175 116 156 125 q 214 107 194 107 l 321 107 q 360 116 342 107 q 394 140 379 125 q 419 175 410 156 q 428 214 428 194 l 535 214 q 517 135 535 174 q 468 67 499 97 q 399 18 438 36 q 321 0 361 0 l 214 0 q 135 18 174 0 q 67 67 97 36 q 18 135 36 97 q 0 214 0 174 l 0 749 z "},"D":{"ha":642,"x_min":0,"x_max":535,"o":"m 0 963 l 321 963 q 399 944 361 963 q 468 896 438 926 q 517 827 499 865 q 535 749 535 789 l 535 214 q 517 135 535 174 q 468 67 499 97 q 399 18 438 36 q 321 0 361 0 l 0 0 l 0 963 m 321 107 q 360 116 342 107 q 394 140 379 125 q 419 175 410 156 q 428 214 428 194 l 428 749 q 419 788 428 769 q 394 822 410 807 q 360 847 379 838 q 321 856 342 856 l 107 856 l 107 107 l 321 107 z "},"E":{"ha":642,"x_min":0,"x_max":535,"o":"m 0 963 l 535 963 l 535 856 l 107 856 l 107 535 l 428 535 l 428 428 l 107 428 l 107 107 l 535 107 l 535 0 l 0 0 l 0 963 z "},"F":{"ha":642,"x_min":0,"x_max":535,"o":"m 0 963 l 535 963 l 535 856 l 107 856 l 107 535 l 428 535 l 428 428 l 107 428 l 107 0 l 0 0 l 0 963 z "},"G":{"ha":642,"x_min":0,"x_max":535,"o":"m 0 749 q 18 827 0 789 q 67 896 36 865 q 135 944 97 926 q 214 963 174 963 l 321 963 q 399 944 361 963 q 468 896 438 926 q 517 827 499 865 q 535 749 535 789 l 428 749 q 419 788 428 769 q 394 822 410 807 q 360 847 379 838 q 321 856 342 856 l 214 856 q 175 847 194 856 q 140 822 156 838 q 116 788 125 807 q 107 749 107 769 l 107 214 q 116 175 107 194 q 140 140 125 156 q 175 116 156 125 q 214 107 194 107 l 321 107 q 360 116 342 107 q 394 140 379 125 q 419 175 410 156 q 428 214 428 194 l 428 321 l 321 321 l 321 428 l 535 428 l 535 214 q 517 135 535 174 q 468 67 499 97 q 399 18 438 36 q 321 0 361 0 l 214 0 q 135 18 174 0 q 67 67 97 36 q 18 135 36 97 q 0 214 0 174 l 0 749 z "},"H":{"ha":642,"x_min":0,"x_max":535,"o":"m 0 963 l 107 963 l 107 535 l 428 535 l 428 963 l 535 963 l 535 0 l 428 0 l 428 428 l 107 428 l 107 0 l 0 0 l 0 963 z "},"I":{"ha":642,"x_min":107,"x_max":428,"o":"m 107 107 l 214 107 l 214 856 l 107 856 l 107 963 l 428 963 l 428 856 l 321 856 l 321 107 l 428 107 l 428 0 l 107 0 l 107 107 z "},"J":{"ha":642,"x_min":0,"x_max":535,"o":"m 107 214 q 116 175 107 194 q 140 140 125 156 q 175 116 156 125 q 214 107 194 107 q 253 116 235 107 q 288 140 272 125 q 312 175 303 156 q 321 214 321 194 l 321 856 l 214 856 l 214 963 l 535 963 l 535 856 l 428 856 l 428 214 q 410 135 428 174 q 361 67 392 97 q 292 18 331 36 q 214 0 254 0 q 135 18 174 0 q 67 67 97 36 q 18 135 36 97 q 0 214 0 174 l 107 214 z "},"K":{"ha":642,"x_min":0,"x_max":535,"o":"m 0 964 l 107 964 l 107 536 l 428 857 l 428 964 l 535 964 l 535 803 l 214 482 l 535 161 l 535 0 l 428 0 l 428 107 l 107 428 l 107 0 l 0 0 l 0 964 z "},"L":{"ha":642,"x_min":0,"x_max":535,"o":"m 0 963 l 107 963 l 107 107 l 535 107 l 535 0 l 0 0 l 0 963 z "},"M":{"ha":642,"x_min":0,"x_max":536,"o":"m 3 964 l 136 964 l 269 696 l 403 963 l 536 963 l 536 0 l 429 0 l 429 749 l 268 428 l 107 749 l 107 0 l 0 0 l 3 964 z "},"N":{"ha":642,"x_min":0,"x_max":535,"o":"m 0 965 l 107 965 l 428 269 l 428 964 l 535 964 l 535 1 l 428 1 l 107 696 l 107 0 l 0 0 l 0 965 z "},"O":{"ha":642,"x_min":0,"x_max":535,"o":"m 0 749 q 18 827 0 789 q 67 896 36 865 q 135 944 97 926 q 214 963 174 963 l 321 963 q 399 944 361 963 q 468 896 438 926 q 517 827 499 865 q 535 749 535 789 l 535 214 q 517 135 535 174 q 468 67 499 97 q 399 18 438 36 q 321 0 361 0 l 214 0 q 135 18 174 0 q 67 67 97 36 q 18 135 36 97 q 0 214 0 174 l 0 749 m 321 107 q 360 116 342 107 q 394 140 379 125 q 419 175 410 156 q 428 214 428 194 l 428 749 q 419 788 428 769 q 394 822 410 807 q 360 847 379 838 q 321 856 342 856 l 214 856 q 175 847 194 856 q 140 822 156 838 q 116 788 125 807 q 107 749 107 769 l 107 214 q 116 175 107 194 q 140 140 125 156 q 175 116 156 125 q 214 107 194 107 l 321 107 z "},"P":{"ha":642,"x_min":0,"x_max":535,"o":"m 0 963 l 321 963 q 399 944 361 963 q 468 896 438 926 q 517 827 499 865 q 535 749 535 789 l 535 642 q 517 563 535 601 q 468 494 499 525 q 399 446 438 464 q 321 428 361 428 l 107 428 l 107 0 l 0 0 l 0 963 m 321 535 q 360 544 342 535 q 394 568 379 553 q 419 603 410 583 q 428 642 428 622 l 428 749 q 419 788 428 769 q 394 822 410 807 q 360 847 379 838 q 321 856 342 856 l 107 856 l 107 535 l 321 535 z "},"Q":{"ha":642,"x_min":0,"x_max":535,"o":"m 0 749 q 18 827 0 789 q 67 896 36 865 q 135 944 97 926 q 214 963 174 963 l 321 963 q 399 944 361 963 q 468 896 438 926 q 517 827 499 865 q 535 749 535 789 l 535 214 q 512 119 535 165 q 449 43 489 74 q 487 12 464 24 q 535 0 510 0 l 535 -107 q 427 -77 478 -107 q 349 1 376 -47 q 335 0 342 0 q 321 0 328 0 l 214 0 q 135 18 174 0 q 67 67 97 36 q 18 135 36 97 q 0 214 0 174 l 0 749 m 321 107 q 312 147 321 128 q 288 181 303 165 q 253 205 272 196 q 214 214 235 214 l 214 321 q 280 309 247 321 q 340 277 313 297 q 388 229 367 257 q 418 169 408 201 q 428 214 428 189 l 428 749 q 419 788 428 769 q 394 822 410 807 q 360 847 379 838 q 321 856 342 856 l 214 856 q 175 847 194 856 q 140 822 156 838 q 116 788 125 807 q 107 749 107 769 l 107 214 q 116 175 107 194 q 140 140 125 156 q 175 116 156 125 q 214 107 194 107 l 321 107 z "},"R":{"ha":642,"x_min":0,"x_max":536,"o":"m 1 964 l 322 964 q 401 946 363 964 q 469 897 439 928 q 518 828 500 867 q 536 750 536 790 l 536 643 q 518 565 536 603 q 469 496 500 526 q 401 447 439 465 q 322 429 363 429 l 268 429 l 535 161 l 535 0 l 428 0 l 428 107 l 107 428 l 107 0 l 0 0 l 1 964 m 322 536 q 362 545 343 536 q 396 569 381 554 q 420 604 411 585 q 429 643 429 624 l 429 750 q 420 790 429 771 q 396 824 411 808 q 362 848 381 839 q 322 857 343 857 l 108 857 l 108 536 l 322 536 z "},"S":{"ha":642,"x_min":0,"x_max":535,"o":"m 107 214 q 116 175 107 194 q 140 140 125 156 q 175 116 156 125 q 214 107 194 107 l 321 107 q 360 116 342 107 q 394 140 379 125 q 419 175 410 156 q 428 214 428 194 l 428 321 q 419 360 428 342 q 394 394 410 379 q 360 419 379 410 q 321 428 342 428 l 214 428 q 135 446 174 428 q 67 494 97 464 q 18 563 36 525 q 0 642 0 601 l 0 749 q 18 827 0 789 q 67 896 36 865 q 135 944 97 926 q 214 963 174 963 l 321 963 q 399 944 361 963 q 468 896 438 926 q 517 827 499 865 q 535 749 535 789 l 428 749 q 419 788 428 769 q 394 822 410 807 q 360 847 379 838 q 321 856 342 856 l 214 856 q 175 847 194 856 q 140 822 156 838 q 116 788 125 807 q 107 749 107 769 l 107 642 q 116 603 107 622 q 140 568 125 583 q 175 544 156 553 q 214 535 194 535 l 321 535 q 399 517 361 535 q 468 468 438 499 q 517 399 499 438 q 535 321 535 361 l 535 214 q 517 135 535 174 q 468 67 499 97 q 399 18 438 36 q 321 0 361 0 l 214 0 q 135 18 174 0 q 67 67 97 36 q 18 135 36 97 q 0 214 0 174 l 107 214 z "},"T":{"ha":642,"x_min":0,"x_max":535,"o":"m 214 856 l 0 856 l 0 963 l 535 963 l 535 856 l 321 856 l 321 0 l 214 0 l 214 856 z "},"U":{"ha":642,"x_min":0,"x_max":535,"o":"m 0 963 l 107 963 l 107 214 q 116 175 107 194 q 140 140 125 156 q 175 116 156 125 q 214 107 194 107 l 321 107 q 360 116 342 107 q 394 140 379 125 q 419 175 410 156 q 428 214 428 194 l 428 963 l 535 963 l 535 214 q 517 135 535 174 q 468 67 499 97 q 399 18 438 36 q 321 0 361 0 l 214 0 q 135 18 174 0 q 67 67 97 36 q 18 135 36 97 q 0 214 0 174 l 0 963 z "},"V":{"ha":642,"x_min":1,"x_max":535,"o":"m 1 535 l 1 963 l 108 963 l 108 535 l 268 133 l 428 535 l 428 963 l 535 963 l 535 535 l 321 0 l 214 0 l 1 535 z "},"W":{"ha":642,"x_min":0,"x_max":533,"o":"m 0 964 l 107 964 l 107 215 l 267 536 l 426 215 l 426 964 l 533 964 l 533 1 l 400 1 l 267 268 l 133 0 l 0 0 l 0 964 z "},"X":{"ha":642,"x_min":0,"x_max":536,"o":"m 3 3 l 217 483 l 3 964 l 110 964 l 269 603 l 429 964 l 536 964 l 322 482 l 536 0 l 429 0 l 268 361 l 107 0 l 0 0 l 3 3 z "},"Y":{"ha":642,"x_min":1,"x_max":535,"o":"m 215 483 l 1 964 l 108 964 l 268 603 l 428 964 l 535 964 l 321 482 l 321 0 l 214 0 l 215 483 z "},"Z":{"ha":642,"x_min":0,"x_max":535,"o":"m 0 107 l 428 856 l 0 856 l 0 963 l 535 963 l 535 856 l 107 107 l 535 107 l 535 0 l 0 0 l 0 107 z "},"[":{"ha":642,"x_min":107,"x_max":428,"o":"m 107 1069 l 428 1069 l 428 963 l 214 963 l 214 0 l 428 0 l 428 -107 l 107 -107 l 107 1069 z "},"\\":{"ha":642,"x_min":0,"x_max":535,"o":"m 0 963 l 107 963 l 535 0 l 428 0 l 0 963 z "},"]":{"ha":642,"x_min":107,"x_max":428,"o":"m 107 0 l 321 0 l 321 963 l 107 963 l 107 1069 l 428 1069 l 428 -107 l 107 -107 l 107 0 z "},"^":{"ha":642,"x_min":0,"x_max":533,"o":"m 0 697 l 267 964 l 533 696 l 533 642 l 436 642 l 267 811 l 97 642 l 0 642 l 0 697 z "},"_":{"ha":642,"x_min":0,"x_max":535,"o":"m 535 0 l 535 -107 l 0 -107 l 0 0 l 535 0 z "},"`":{"ha":642,"x_min":107,"x_max":428,"o":"m 182 1069 l 428 824 l 428 749 l 353 749 l 107 994 l 107 1069 l 182 1069 z "},"a":{"ha":642,"x_min":0,"x_max":535,"o":"m 214 0 q 135 18 174 0 q 67 67 97 36 q 18 135 36 97 q 0 214 0 174 q 18 292 0 254 q 67 361 36 331 q 135 410 97 392 q 214 428 174 428 l 428 428 q 419 467 428 449 q 394 501 410 486 q 360 526 379 517 q 321 535 342 535 l 107 535 l 107 642 l 321 642 q 399 624 361 642 q 468 575 438 606 q 517 506 499 544 q 535 428 535 468 l 535 0 l 214 0 m 428 321 l 214 321 q 175 312 194 321 q 140 288 156 303 q 116 253 125 272 q 107 214 107 235 q 116 175 107 194 q 140 140 125 156 q 175 116 156 125 q 214 107 194 107 l 428 107 l 428 321 z "},"b":{"ha":642,"x_min":0,"x_max":535,"o":"m 0 963 l 107 963 l 107 642 l 321 642 q 399 624 361 642 q 468 575 438 606 q 517 506 499 544 q 535 428 535 468 l 535 214 q 517 135 535 174 q 468 67 499 97 q 399 18 438 36 q 321 0 361 0 l 0 0 l 0 963 m 321 107 q 360 116 342 107 q 394 140 379 125 q 419 175 410 156 q 428 214 428 194 l 428 428 q 419 467 428 449 q 394 501 410 486 q 360 526 379 517 q 321 535 342 535 l 107 535 l 107 107 l 321 107 z "},"c":{"ha":642,"x_min":0,"x_max":535,"o":"m 0 428 q 18 506 0 468 q 67 575 36 544 q 135 624 97 606 q 214 642 174 642 l 321 642 q 399 624 361 642 q 468 575 438 606 q 517 506 499 544 q 535 428 535 468 l 428 428 q 419 467 428 449 q 394 501 410 486 q 360 526 379 517 q 321 535 342 535 l 214 535 q 175 526 194 535 q 140 501 156 517 q 116 467 125 486 q 107 428 107 449 l 107 214 q 116 175 107 194 q 140 140 125 156 q 175 116 156 125 q 214 107 194 107 l 321 107 q 360 116 342 107 q 394 140 379 125 q 419 175 410 156 q 428 214 428 194 l 535 214 q 517 135 535 174 q 468 67 499 97 q 399 18 438 36 q 321 0 361 0 l 214 0 q 135 18 174 0 q 67 67 97 36 q 18 135 36 97 q 0 214 0 174 l 0 428 z "},"d":{"ha":642,"x_min":0,"x_max":535,"o":"m 0 428 q 18 506 0 468 q 67 575 36 544 q 135 624 97 606 q 214 642 174 642 l 428 642 l 428 963 l 535 963 l 535 0 l 214 0 q 135 18 174 0 q 67 67 97 36 q 18 135 36 97 q 0 214 0 174 l 0 428 m 428 107 l 428 535 l 214 535 q 175 526 194 535 q 140 501 156 517 q 116 467 125 486 q 107 428 107 449 l 107 214 q 116 175 107 194 q 140 140 125 156 q 175 116 156 125 q 214 107 194 107 l 428 107 z "},"e":{"ha":642,"x_min":0,"x_max":535,"o":"m 214 0 q 135 18 174 0 q 67 67 97 36 q 18 135 36 97 q 0 214 0 174 l 0 428 q 18 506 0 468 q 67 575 36 544 q 135 624 97 606 q 214 642 174 642 l 321 642 q 399 624 361 642 q 468 575 438 606 q 517 506 499 544 q 535 428 535 468 l 535 321 l 107 321 l 107 214 q 116 175 107 194 q 140 140 125 156 q 175 116 156 125 q 214 107 194 107 l 321 107 q 360 116 342 107 q 394 140 379 125 q 419 175 410 156 q 428 214 428 194 l 535 214 q 517 135 535 174 q 468 67 499 97 q 399 18 438 36 q 321 0 361 0 l 214 0 m 428 428 q 419 467 428 449 q 394 501 410 486 q 360 526 379 517 q 321 535 342 535 l 214 535 q 175 526 194 535 q 140 501 156 517 q 116 467 125 486 q 107 428 107 449 l 428 428 z "},"f":{"ha":642,"x_min":0,"x_max":535,"o":"m 107 428 l 0 428 l 0 535 l 107 535 l 107 749 q 125 827 107 789 q 174 896 143 865 q 242 944 204 926 q 321 963 281 963 q 399 944 361 963 q 468 896 438 926 q 517 827 499 865 q 535 749 535 789 l 428 749 q 419 788 428 769 q 394 822 410 807 q 360 847 379 838 q 321 856 342 856 q 282 847 301 856 q 247 822 263 838 q 223 788 232 807 q 214 749 214 769 l 214 535 l 428 535 l 428 428 l 214 428 l 214 0 l 107 0 l 107 428 z "},"g":{"ha":642,"x_min":0,"x_max":535,"o":"m 107 0 q 116 -39 107 -19 q 140 -74 125 -58 q 175 -98 156 -89 q 214 -107 194 -107 l 321 -107 q 360 -98 342 -107 q 394 -74 379 -89 q 419 -39 410 -58 q 428 0 428 -19 l 428 107 l 214 107 q 135 125 174 107 q 67 174 97 143 q 18 242 36 204 q 0 321 0 281 l 0 428 q 18 506 0 468 q 67 575 36 544 q 135 624 97 606 q 214 642 174 642 l 321 642 q 399 624 361 642 q 468 575 438 606 q 517 506 499 544 q 535 428 535 468 l 535 0 q 517 -78 535 -40 q 468 -147 499 -117 q 399 -196 438 -178 q 321 -214 361 -214 l 214 -214 q 135 -196 174 -214 q 67 -147 97 -178 q 18 -78 36 -117 q 0 0 0 -40 l 107 0 m 428 214 l 428 428 q 419 467 428 449 q 394 501 410 486 q 360 526 379 517 q 321 535 342 535 l 214 535 q 175 526 194 535 q 140 501 156 517 q 116 467 125 486 q 107 428 107 449 l 107 321 q 116 282 107 301 q 140 247 125 263 q 175 223 156 232 q 214 214 194 214 l 428 214 z "},"h":{"ha":642,"x_min":0,"x_max":535,"o":"m 0 963 l 107 963 l 107 613 q 214 642 154 642 l 321 642 q 399 624 361 642 q 468 575 438 606 q 517 506 499 544 q 535 428 535 468 l 535 0 l 428 0 l 428 428 q 419 467 428 449 q 394 501 410 486 q 360 526 379 517 q 321 535 342 535 l 214 535 q 175 526 194 535 q 140 501 156 517 q 116 467 125 486 q 107 428 107 449 l 107 0 l 0 0 l 0 963 z "},"i":{"ha":642,"x_min":107,"x_max":428,"o":"m 107 107 l 214 107 l 214 535 l 107 535 l 107 642 l 321 642 l 321 107 l 428 107 l 428 0 l 107 0 l 107 107 m 271 753 q 233 769 250 753 q 217 806 217 786 q 233 842 217 825 q 269 858 250 858 q 306 841 289 858 q 322 804 322 824 q 305 767 322 783 q 268 750 288 750 l 271 753 z "},"j":{"ha":642,"x_min":0,"x_max":429,"o":"m 0 107 l 107 107 l 107 0 q 116 -39 107 -19 q 140 -74 125 -58 q 175 -98 156 -89 q 214 -107 194 -107 q 253 -98 235 -107 q 288 -74 272 -89 q 312 -39 303 -58 q 321 0 321 -19 l 321 535 l 214 535 l 214 642 l 428 642 l 428 0 q 410 -78 428 -40 q 361 -147 392 -117 q 292 -196 331 -178 q 214 -214 254 -214 q 135 -196 174 -214 q 67 -147 97 -178 q 18 -78 36 -117 q 0 0 0 -40 l 0 107 m 378 753 q 340 769 357 753 q 324 806 324 786 q 340 842 324 825 q 376 858 357 858 q 413 841 396 858 q 429 804 429 824 q 412 767 429 783 q 375 750 394 750 l 378 753 z "},"k":{"ha":642,"x_min":0,"x_max":535,"o":"m 1 964 l 108 964 l 108 429 l 322 643 l 429 643 l 161 375 l 535 0 l 428 0 l 107 321 l 107 0 l 0 0 l 1 964 z "},"l":{"ha":642,"x_min":107,"x_max":428,"o":"m 107 107 l 214 107 l 214 856 l 107 856 l 107 963 l 321 963 l 321 107 l 428 107 l 428 0 l 107 0 l 107 107 z "},"m":{"ha":642,"x_min":0,"x_max":538,"o":"m 4 649 l 164 649 q 221 638 193 649 q 271 608 249 628 q 321 638 293 628 q 378 649 349 649 q 436 635 407 649 q 488 598 465 621 q 524 547 510 575 q 538 488 538 518 l 538 6 l 431 6 l 431 486 q 413 522 431 506 q 376 539 396 539 q 339 522 356 539 q 322 485 322 504 l 322 3 l 215 3 l 215 483 q 198 519 215 503 q 161 536 181 536 q 124 519 140 536 q 107 482 107 501 l 107 0 l 0 0 l 4 649 z "},"n":{"ha":642,"x_min":0,"x_max":535,"o":"m 0 642 l 107 642 l 107 613 q 214 642 154 642 l 321 642 q 399 624 361 642 q 468 575 438 606 q 517 506 499 544 q 535 428 535 468 l 535 0 l 428 0 l 428 428 q 419 467 428 449 q 394 501 410 486 q 360 526 379 517 q 321 535 342 535 l 214 535 q 175 526 194 535 q 140 501 156 517 q 116 467 125 486 q 107 428 107 449 l 107 0 l 0 0 l 0 642 z "},"o":{"ha":642,"x_min":0,"x_max":535,"o":"m 0 428 q 18 506 0 468 q 67 575 36 544 q 135 624 97 606 q 214 642 174 642 l 321 642 q 399 624 361 642 q 468 575 438 606 q 517 506 499 544 q 535 428 535 468 l 535 214 q 517 135 535 174 q 468 67 499 97 q 399 18 438 36 q 321 0 361 0 l 214 0 q 135 18 174 0 q 67 67 97 36 q 18 135 36 97 q 0 214 0 174 l 0 428 m 321 107 q 360 116 342 107 q 394 140 379 125 q 419 175 410 156 q 428 214 428 194 l 428 428 q 419 467 428 449 q 394 501 410 486 q 360 526 379 517 q 321 535 342 535 l 214 535 q 175 526 194 535 q 140 501 156 517 q 116 467 125 486 q 107 428 107 449 l 107 214 q 116 175 107 194 q 140 140 125 156 q 175 116 156 125 q 214 107 194 107 l 321 107 z "},"p":{"ha":642,"x_min":0,"x_max":535,"o":"m 0 642 l 321 642 q 399 624 361 642 q 468 575 438 606 q 517 506 499 544 q 535 428 535 468 l 535 321 q 517 242 535 281 q 468 174 499 204 q 399 125 438 143 q 321 107 361 107 l 107 107 l 107 -214 l 0 -214 l 0 642 m 321 214 q 360 223 342 214 q 394 247 379 232 q 419 282 410 263 q 428 321 428 301 l 428 428 q 419 467 428 449 q 394 501 410 486 q 360 526 379 517 q 321 535 342 535 l 107 535 l 107 214 l 321 214 z "},"q":{"ha":642,"x_min":0,"x_max":535,"o":"m 0 428 q 18 506 0 468 q 67 575 36 544 q 135 624 97 606 q 214 642 174 642 l 535 642 l 535 -214 l 428 -214 l 428 107 l 214 107 q 135 125 174 107 q 67 174 97 143 q 18 242 36 204 q 0 321 0 281 l 0 428 m 428 214 l 428 535 l 214 535 q 175 526 194 535 q 140 501 156 517 q 116 467 125 486 q 107 428 107 449 l 107 321 q 116 282 107 301 q 140 247 125 263 q 175 223 156 232 q 214 214 194 214 l 428 214 z "},"r":{"ha":642,"x_min":0,"x_max":535,"o":"m 0 642 l 107 642 l 107 613 q 214 642 154 642 l 321 642 q 399 624 361 642 q 468 575 438 606 q 517 506 499 544 q 535 428 535 468 l 428 428 q 419 467 428 449 q 394 501 410 486 q 360 526 379 517 q 321 535 342 535 l 214 535 q 175 526 194 535 q 140 501 156 517 q 116 467 125 486 q 107 428 107 449 l 107 0 l 0 0 l 0 642 z "},"s":{"ha":642,"x_min":0,"x_max":535,"o":"m 107 217 q 116 178 107 197 q 140 143 125 158 q 175 119 156 128 q 214 110 194 110 l 321 110 q 360 119 342 110 q 394 143 379 128 q 419 178 410 158 q 428 217 428 197 l 0 376 l 0 429 q 18 508 0 469 q 67 576 36 546 q 135 625 97 607 q 214 643 174 643 l 321 643 q 399 625 361 643 q 468 576 438 607 q 517 508 499 546 q 535 429 535 469 l 428 429 q 419 469 428 450 q 394 503 410 488 q 360 527 379 518 q 321 536 342 536 l 214 536 q 175 527 194 536 q 140 503 156 518 q 116 469 125 488 q 107 429 107 450 l 535 268 l 535 214 q 517 135 535 174 q 468 67 499 97 q 399 18 438 36 q 321 0 361 0 l 214 0 q 135 18 174 0 q 67 67 97 36 q 18 135 36 97 q 0 214 0 174 l 107 217 z "},"t":{"ha":642,"x_min":0,"x_max":535,"o":"m 107 535 l 0 535 l 0 642 l 107 642 l 107 856 l 214 856 l 214 642 l 428 642 l 428 535 l 214 535 l 214 214 q 223 175 214 194 q 247 140 232 156 q 282 116 263 125 q 321 107 301 107 q 360 116 342 107 q 394 140 379 125 q 419 175 410 156 q 428 214 428 194 l 535 214 q 517 135 535 174 q 468 67 499 97 q 399 18 438 36 q 321 0 361 0 q 242 18 281 0 q 174 67 204 36 q 125 135 143 97 q 107 214 107 174 l 107 535 z "},"u":{"ha":642,"x_min":0,"x_max":535,"o":"m 0 642 l 107 642 l 107 214 q 116 175 107 194 q 140 140 125 156 q 175 116 156 125 q 214 107 194 107 l 321 107 q 360 116 342 107 q 394 140 379 125 q 419 175 410 156 q 428 214 428 194 l 428 642 l 535 642 l 535 0 l 428 0 l 428 29 q 321 0 379 0 l 214 0 q 135 18 174 0 q 67 67 97 36 q 18 135 36 97 q 0 214 0 174 l 0 642 z "},"v":{"ha":642,"x_min":0,"x_max":535,"o":"m 1 642 l 108 642 l 108 353 l 268 113 l 428 353 l 428 642 l 535 642 l 535 321 l 321 0 l 214 0 l 0 321 l 1 642 z "},"w":{"ha":642,"x_min":0,"x_max":536,"o":"m 4 642 l 111 642 l 111 239 l 164 132 l 217 239 l 217 428 l 324 428 l 324 239 l 376 132 l 429 239 l 429 642 l 536 642 l 536 214 l 429 0 l 322 0 l 268 107 l 214 0 l 107 0 l 0 214 l 4 642 z "},"x":{"ha":642,"x_min":0,"x_max":536,"o":"m 217 321 l 3 642 l 110 642 l 269 401 l 429 642 l 536 642 l 322 321 l 536 0 l 429 0 l 268 240 l 107 0 l 0 0 l 217 321 z "},"y":{"ha":642,"x_min":0,"x_max":535,"o":"m 107 0 q 116 -39 107 -19 q 140 -74 125 -58 q 175 -98 156 -89 q 214 -107 194 -107 l 321 -107 q 360 -98 342 -107 q 394 -74 379 -89 q 419 -39 410 -58 q 428 0 428 -19 l 428 136 q 321 107 379 107 l 214 107 q 135 125 174 107 q 67 174 97 143 q 18 242 36 204 q 0 321 0 281 l 0 642 l 107 642 l 107 321 q 116 282 107 301 q 140 247 125 263 q 175 223 156 232 q 214 214 194 214 l 321 214 q 360 223 342 214 q 394 247 379 232 q 419 282 410 263 q 428 321 428 301 l 428 642 l 535 642 l 535 0 q 517 -78 535 -40 q 468 -147 499 -117 q 399 -196 438 -178 q 321 -214 361 -214 l 214 -214 q 135 -196 174 -214 q 67 -147 97 -178 q 18 -78 36 -117 q 0 0 0 -40 l 107 0 z "},"z":{"ha":642,"x_min":0,"x_max":536,"o":"m 3 107 l 376 535 l 1 535 l 1 642 l 536 642 l 536 535 l 161 107 l 535 107 l 535 0 l 0 0 l 3 107 z "},"{":{"ha":642,"x_min":0,"x_max":535,"o":"m 0 536 l 107 536 q 147 545 128 536 q 181 569 165 554 q 205 604 196 585 q 214 643 214 624 l 214 857 q 232 935 214 897 q 281 1004 250 974 q 349 1053 311 1035 q 428 1071 388 1071 l 535 1071 l 535 964 l 428 964 q 389 955 408 964 q 354 931 369 946 q 330 897 339 915 q 321 857 321 878 l 321 643 q 302 555 321 597 q 249 482 283 513 q 302 409 283 451 q 321 321 321 367 l 321 107 q 330 68 321 88 q 354 33 339 49 q 389 9 369 18 q 428 0 408 0 l 535 0 l 535 -107 l 428 -107 q 349 -89 388 -107 q 281 -40 311 -71 q 232 28 250 -10 q 214 107 214 67 l 214 321 q 205 360 214 342 q 181 394 196 379 q 147 419 165 410 q 107 428 128 428 l 0 428 l 0 536 z "},"|":{"ha":642,"x_min":214,"x_max":321,"o":"m 214 963 l 321 963 l 321 0 l 214 0 l 214 963 z "},"}":{"ha":642,"x_min":0,"x_max":535,"o":"m 107 1 q 147 10 128 1 q 181 35 165 19 q 205 69 196 50 q 214 108 214 89 l 214 322 q 233 409 214 367 q 286 482 251 451 q 233 553 251 511 q 214 642 214 596 l 214 856 q 205 895 214 876 q 181 929 196 914 q 147 953 165 944 q 107 963 128 963 l 0 963 l 0 1069 l 107 1069 q 185 1051 147 1069 q 254 1003 224 1033 q 303 934 285 972 q 321 856 321 896 l 321 642 q 330 603 321 622 q 354 568 339 583 q 389 544 369 553 q 428 535 408 535 l 535 535 l 535 428 l 428 428 q 389 419 408 428 q 354 394 369 410 q 330 360 339 379 q 321 321 321 342 l 321 107 q 303 28 321 67 q 254 -40 285 -10 q 185 -89 224 -71 q 107 -107 147 -107 l 0 -107 l 0 0 l 107 1 z "},"~":{"ha":642,"x_min":0,"x_max":538,"o":"m 6 808 q 19 867 6 838 q 56 918 33 896 q 106 954 78 940 q 165 968 135 968 q 224 954 194 968 q 275 917 253 940 q 311 866 297 894 q 325 807 325 838 q 342 769 325 786 q 378 753 358 753 q 414 769 397 753 q 431 806 431 786 l 431 913 l 538 913 l 538 806 q 524 747 538 775 q 487 695 510 718 q 435 658 464 672 q 376 644 407 644 q 317 658 346 644 q 266 694 289 672 q 229 745 243 717 q 215 804 215 774 q 198 840 215 824 q 161 857 181 857 q 124 840 140 857 q 107 803 107 822 l 107 696 l 0 696 l 6 808 z "},"¡":{"ha":642,"x_min":214,"x_max":322,"o":"m 214 749 l 321 749 l 321 0 l 214 0 l 214 749 m 271 860 q 233 876 250 860 q 217 913 217 893 q 233 949 217 932 q 269 965 250 965 q 306 948 289 965 q 322 911 322 931 q 305 874 322 890 q 268 857 288 857 l 271 860 z "},"¢":{"ha":642,"x_min":0,"x_max":535,"o":"m 214 214 q 135 232 174 214 q 67 281 97 250 q 18 349 36 311 q 0 428 0 388 l 0 642 q 18 720 0 682 q 67 789 36 758 q 135 838 97 819 q 214 856 174 856 l 214 963 l 321 963 l 321 856 q 399 838 361 856 q 468 789 438 819 q 517 720 499 758 q 535 642 535 682 l 428 642 q 419 681 428 663 q 394 715 410 700 q 360 740 379 731 q 321 749 342 749 l 321 321 q 360 330 342 321 q 394 354 379 339 q 419 389 410 369 q 428 428 428 408 l 535 428 q 517 349 535 388 q 468 281 499 311 q 399 232 438 250 q 321 214 361 214 l 321 107 l 214 107 l 214 214 m 214 749 q 175 740 194 749 q 140 715 156 731 q 116 681 125 700 q 107 642 107 663 l 107 428 q 116 389 107 408 q 140 354 125 369 q 175 330 156 339 q 214 321 194 321 l 214 749 z "},"£":{"ha":642,"x_min":0,"x_max":536,"o":"m 1 107 q 41 116 22 107 q 75 140 60 125 q 99 175 90 156 q 108 214 108 194 l 108 428 l 1 428 l 1 535 l 108 535 l 108 749 q 126 827 108 789 q 175 896 144 865 q 244 944 206 926 q 322 963 282 963 q 401 944 363 963 q 469 896 439 926 q 518 827 500 865 q 536 749 536 789 l 429 749 q 420 788 429 769 q 396 822 411 807 q 362 847 381 838 q 322 856 343 856 q 283 847 303 856 q 249 822 264 838 q 224 788 233 807 q 215 749 215 769 l 215 535 l 322 535 l 322 428 l 215 428 l 215 214 q 224 175 215 194 q 249 140 233 156 q 283 116 264 125 q 322 107 303 107 q 362 116 343 107 q 396 140 381 125 q 420 175 411 156 q 429 214 429 194 l 536 214 q 518 135 536 174 q 469 67 500 97 q 401 18 439 36 q 322 0 363 0 q 234 19 276 0 q 161 72 192 38 q 88 19 131 38 q 0 0 46 0 l 1 107 z "},"¤":{"ha":642,"x_min":0,"x_max":533,"o":"m 0 182 l 83 265 q 71 301 76 278 q 62 346 65 325 q 56 377 58 367 q 54 374 54 388 q 83 482 54 432 l 0 565 l 0 640 l 75 640 l 158 557 q 210 579 182 572 q 267 586 239 586 q 335 585 311 586 q 367 583 358 585 q 376 578 376 581 q 372 573 375 576 q 368 565 369 569 q 375 557 367 561 l 458 640 l 533 640 l 533 565 l 450 482 q 479 430 479 458 q 479 374 479 401 q 450 265 479 315 l 533 182 l 533 107 l 458 107 l 375 190 q 267 161 326 161 q 158 190 208 161 l 75 107 l 0 107 l 0 182 m 268 268 q 308 277 289 268 q 342 301 326 286 q 366 336 357 317 q 375 375 375 356 q 366 415 375 396 q 342 449 357 433 q 308 473 326 464 q 268 482 289 482 q 229 473 249 482 q 194 449 210 464 q 170 415 179 433 q 161 375 161 396 q 170 336 161 356 q 194 301 179 317 q 229 277 210 286 q 268 268 249 268 z "},"¥":{"ha":642,"x_min":1,"x_max":535,"o":"m 215 214 l 1 214 l 1 321 l 215 321 l 215 428 l 1 428 l 1 535 l 192 535 l 1 963 l 108 963 l 268 601 l 428 963 l 535 963 l 344 535 l 535 535 l 535 428 l 321 428 l 321 321 l 535 321 l 535 214 l 321 214 l 321 0 l 214 0 l 215 214 z "},"¦":{"ha":642,"x_min":214,"x_max":321,"o":"m 214 428 l 321 428 l 321 0 l 214 0 l 214 428 m 214 963 l 321 963 l 321 535 l 214 535 l 214 963 z "},"§":{"ha":642,"x_min":107,"x_max":535,"o":"m 214 217 q 223 178 214 197 q 247 143 232 158 q 282 119 263 128 q 321 110 301 110 q 360 119 342 110 q 394 143 379 128 q 419 178 410 158 q 428 217 428 197 q 419 256 428 238 q 394 290 410 275 q 360 315 379 306 q 321 324 342 324 q 242 342 281 324 q 174 390 204 360 q 125 459 143 421 q 107 538 107 497 q 126 624 107 582 q 179 697 144 667 q 126 769 144 726 q 107 857 107 811 q 125 935 107 897 q 174 1004 143 974 q 242 1053 204 1035 q 321 1071 281 1071 q 399 1053 361 1071 q 468 1004 438 1035 q 517 935 499 974 q 535 857 535 897 l 428 857 q 419 897 428 878 q 394 931 410 915 q 360 955 379 946 q 321 964 342 964 q 282 955 301 964 q 247 931 263 946 q 223 897 232 915 q 214 857 214 878 q 223 818 214 838 q 247 783 232 799 q 282 759 263 768 q 321 750 301 750 q 399 732 361 750 q 468 683 438 714 q 517 615 499 653 q 535 536 535 576 q 516 448 535 490 q 463 375 497 406 q 516 302 497 344 q 535 214 535 260 q 517 135 535 174 q 468 67 499 97 q 399 18 438 36 q 321 0 361 0 q 242 18 281 0 q 174 67 204 36 q 125 135 143 97 q 107 214 107 174 l 214 217 m 321 431 q 360 440 342 431 q 394 464 379 449 q 419 499 410 479 q 428 538 428 518 q 419 577 428 558 q 394 611 410 596 q 360 635 379 626 q 321 644 342 644 q 282 635 301 644 q 247 611 263 626 q 223 577 232 596 q 214 538 214 558 q 223 499 214 518 q 247 464 232 479 q 282 440 263 449 q 321 431 301 431 z "},"¨":{"ha":642,"x_min":110,"x_max":432,"o":"m 164 860 q 126 876 143 860 q 110 913 110 893 q 126 949 110 932 q 163 965 143 965 q 199 948 182 965 q 215 911 215 931 q 198 874 215 890 q 161 857 181 857 l 164 860 m 381 864 q 343 881 360 864 q 326 917 326 897 q 343 953 326 936 q 379 969 360 969 q 415 952 399 969 q 432 915 432 935 q 415 878 432 894 q 378 861 397 861 l 381 864 z "},"©":{"ha":642,"x_min":0,"x_max":535,"o":"m 214 107 q 135 125 174 107 q 67 174 97 143 q 18 242 36 204 q 0 321 0 281 l 0 856 q 18 934 0 896 q 67 1003 36 972 q 135 1051 97 1033 q 214 1069 174 1069 l 321 1069 q 399 1051 361 1069 q 468 1003 438 1033 q 517 934 499 972 q 535 856 535 896 l 535 321 q 517 242 535 281 q 468 174 499 204 q 399 125 438 143 q 321 107 361 107 l 214 107 m 321 214 q 360 223 342 214 q 394 247 379 232 q 419 282 410 263 q 428 321 428 301 l 428 856 q 419 895 428 876 q 394 929 410 914 q 360 953 379 944 q 321 963 342 963 l 214 963 q 175 953 194 963 q 140 929 156 944 q 116 895 125 914 q 107 856 107 876 l 107 321 q 116 282 107 301 q 140 247 125 263 q 175 223 156 232 q 214 214 194 214 l 321 214 m 378 488 l 378 433 q 369 394 378 414 q 344 360 360 375 q 310 335 329 344 q 271 326 292 326 q 232 335 251 326 q 197 360 213 344 q 173 394 182 375 q 164 433 164 414 l 164 754 q 173 794 164 775 q 197 828 182 813 q 232 852 213 843 q 271 861 251 861 q 310 852 292 861 q 344 828 329 843 q 369 794 360 813 q 378 754 378 775 l 378 700 l 324 700 l 324 753 q 306 789 324 772 q 269 806 289 806 q 232 788 249 806 q 215 751 215 771 l 215 431 q 232 393 215 410 q 268 376 249 376 q 304 393 288 376 q 321 429 321 410 l 321 482 l 378 488 z "},"ª":{"ha":642,"x_min":0,"x_max":535,"o":"m 0 321 l 535 321 l 535 214 l 0 214 l 0 321 m 163 429 q 103 443 132 429 q 52 479 75 457 q 15 530 29 501 q 1 589 1 558 q 15 647 1 618 q 51 699 29 676 q 102 735 74 721 q 161 749 131 749 l 428 749 q 419 788 428 769 q 394 822 410 807 q 360 847 379 838 q 321 856 342 856 l 107 856 l 107 963 l 321 963 q 399 944 361 963 q 468 896 438 926 q 517 827 499 865 q 535 749 535 789 l 535 428 l 163 429 m 433 644 l 165 644 q 128 627 144 644 q 111 590 111 610 q 128 553 111 569 q 164 536 144 536 l 431 536 l 433 644 z "},"«":{"ha":642,"x_min":0,"x_max":535,"o":"m 0 428 l 321 749 l 321 597 l 151 428 l 321 258 l 321 107 l 0 428 m 214 428 l 535 749 l 535 597 l 365 428 l 535 258 l 535 107 l 214 428 z "},"¬":{"ha":642,"x_min":0,"x_max":535,"o":"m 0 535 l 535 535 l 535 321 l 428 321 l 428 428 l 0 428 l 0 535 z "},"-":{"ha":642,"x_min":0,"x_max":535,"o":"m 0 535 l 535 535 l 535 428 l 0 428 l 0 535 z "},"®":{"ha":642,"x_min":0,"x_max":535,"o":"m 214 107 q 135 125 174 107 q 67 174 97 143 q 18 242 36 204 q 0 321 0 281 l 0 856 q 18 934 0 896 q 67 1003 36 972 q 135 1051 97 1033 q 214 1069 174 1069 l 321 1069 q 399 1051 361 1069 q 468 1003 438 1033 q 517 934 499 972 q 535 856 535 896 l 535 321 q 517 242 535 281 q 468 174 499 204 q 399 125 438 143 q 321 107 361 107 l 214 107 m 321 214 q 360 223 342 214 q 394 247 379 232 q 419 282 410 263 q 428 321 428 301 l 428 856 q 419 895 428 876 q 394 929 410 914 q 360 953 379 944 q 321 963 342 963 l 214 963 q 175 953 194 963 q 140 929 156 944 q 116 895 125 914 q 107 856 107 876 l 107 321 q 116 282 107 301 q 140 247 125 263 q 175 223 156 232 q 214 214 194 214 l 321 214 m 161 321 l 161 856 l 268 856 q 308 847 289 856 q 342 822 326 838 q 366 788 357 807 q 375 749 375 769 l 375 642 q 366 603 375 622 q 342 568 357 583 q 308 544 326 553 q 268 535 289 535 l 375 321 l 321 321 l 214 535 l 214 321 l 161 321 m 271 590 q 307 607 290 590 q 324 643 324 624 l 324 750 q 306 786 324 769 q 269 803 289 803 l 215 803 l 215 589 l 271 590 z "},"¯":{"ha":642,"x_min":0,"x_max":535,"o":"m 0 963 l 535 963 l 535 856 l 0 856 l 0 963 z "},"°":{"ha":642,"x_min":107,"x_max":535,"o":"m 321 535 q 242 553 281 535 q 174 601 204 571 q 125 670 143 632 q 107 749 107 708 q 125 827 107 789 q 174 896 143 865 q 242 944 204 926 q 321 963 281 963 q 399 944 361 963 q 468 896 438 926 q 517 827 499 865 q 535 749 535 789 q 517 670 535 708 q 468 601 499 632 q 399 553 438 571 q 321 535 361 535 m 321 642 q 360 651 342 642 q 394 675 379 660 q 419 710 410 690 q 428 749 428 729 q 419 788 428 769 q 394 822 410 807 q 360 847 379 838 q 321 856 342 856 q 282 847 301 856 q 247 822 263 838 q 223 788 232 807 q 214 749 214 769 q 223 710 214 729 q 247 675 232 690 q 282 651 263 660 q 321 642 301 642 z "},"±":{"ha":642,"x_min":0,"x_max":535,"o":"m 0 214 l 535 214 l 535 107 l 0 107 l 0 214 m 0 642 l 214 642 l 214 856 l 321 856 l 321 642 l 535 642 l 535 535 l 321 535 l 321 321 l 214 321 l 214 535 l 0 535 l 0 642 z "},"²":{"ha":642,"x_min":0,"x_max":321,"o":"m 217 860 l 217 913 q 199 949 217 932 q 163 965 182 965 q 125 948 142 965 q 108 911 108 931 l 108 857 l 1 857 l 1 910 q 15 968 1 939 q 51 1019 29 997 q 102 1056 74 1042 q 161 1069 131 1069 q 219 1056 190 1069 q 271 1019 249 1042 q 307 967 293 996 q 321 908 321 939 l 321 811 l 151 642 l 321 642 l 321 535 l 0 535 l 0 642 l 217 860 z "},"³":{"ha":642,"x_min":0,"x_max":322,"o":"m 7 649 l 167 649 q 203 665 186 649 q 219 701 219 682 q 202 738 219 721 q 165 754 185 754 l 165 861 q 201 878 185 861 q 218 914 218 894 q 201 950 218 933 q 164 967 183 967 q 126 949 143 967 q 110 913 110 932 l 110 858 l 3 858 l 3 911 q 17 969 3 940 q 53 1021 31 999 q 103 1057 75 1043 q 163 1071 132 1071 q 221 1057 192 1071 q 272 1020 250 1043 q 308 969 294 997 q 322 910 322 940 q 312 853 322 881 q 282 803 301 825 q 312 753 301 781 q 322 696 322 725 q 308 637 322 665 q 272 585 294 608 q 220 549 249 563 q 161 535 192 535 l 0 535 l 7 649 z "},"´":{"ha":642,"x_min":107,"x_max":428,"o":"m 107 824 l 353 1069 l 428 1069 l 428 994 l 182 749 l 107 749 l 107 824 z "},"µ":{"ha":642,"x_min":0,"x_max":535,"o":"m 107 642 l 107 214 q 116 175 107 194 q 140 140 125 156 q 175 116 156 125 q 214 107 194 107 l 321 107 q 360 116 342 107 q 394 140 379 125 q 419 175 410 156 q 428 214 428 194 l 428 642 l 535 642 l 535 0 l 428 0 l 428 29 q 321 0 379 0 l 214 0 q 158 8 186 0 q 107 29 131 15 l 107 -214 l 0 -214 l 0 642 l 107 642 z "},"¶":{"ha":642,"x_min":0,"x_max":535,"o":"m 214 0 l 214 428 q 135 446 174 428 q 67 494 97 464 q 18 563 36 525 q 0 642 0 601 l 0 749 q 18 827 0 789 q 67 896 36 865 q 135 944 97 926 q 214 963 174 963 l 535 963 l 535 0 l 428 0 l 428 856 l 321 856 l 321 0 l 214 0 z "},"·":{"ha":642,"x_min":217,"x_max":322,"o":"m 271 432 q 233 449 250 432 q 217 485 217 465 q 233 521 217 504 q 269 538 250 538 q 306 520 289 538 q 322 483 322 503 q 305 446 322 463 q 268 429 288 429 l 271 432 z "},"¸":{"ha":642,"x_min":107,"x_max":428,"o":"m 321 3 l 321 -51 l 347 -51 q 403 -76 378 -51 q 428 -132 428 -101 q 403 -187 428 -162 q 347 -212 378 -212 l 107 -212 l 107 -160 l 347 -160 q 365 -152 357 -160 q 374 -133 374 -144 q 366 -115 374 -124 q 347 -107 358 -107 l 214 -107 l 214 0 l 321 3 z "},"¹":{"ha":642,"x_min":0,"x_max":321,"o":"m 0 642 l 107 642 l 107 856 l 0 856 l 0 963 l 107 1069 l 214 1069 l 214 642 l 321 642 l 321 535 l 0 535 l 0 642 z "},"º":{"ha":642,"x_min":0,"x_max":535,"o":"m 0 321 l 535 321 l 535 214 l 0 214 l 0 321 m 214 428 q 135 446 174 428 q 67 494 97 464 q 18 563 36 525 q 0 642 0 601 l 0 749 q 18 827 0 789 q 67 896 36 865 q 135 944 97 926 q 214 963 174 963 l 321 963 q 399 944 361 963 q 468 896 438 926 q 517 827 499 865 q 535 749 535 789 l 535 642 q 517 563 535 601 q 468 494 499 525 q 399 446 438 464 q 321 428 361 428 l 214 428 m 321 535 q 360 544 342 535 q 394 568 379 553 q 419 603 410 583 q 428 642 428 622 l 428 749 q 419 788 428 769 q 394 822 410 807 q 360 847 379 838 q 321 856 342 856 l 214 856 q 175 847 194 856 q 140 822 156 838 q 116 788 125 807 q 107 749 107 769 l 107 642 q 116 603 107 622 q 140 568 125 583 q 175 544 156 553 q 214 535 194 535 l 321 535 z "},"»":{"ha":642,"x_min":0,"x_max":535,"o":"m 0 258 l 169 428 l 0 597 l 0 749 l 321 428 l 0 107 l 0 258 m 214 258 l 383 428 l 214 597 l 214 749 l 535 428 l 214 107 l 214 258 z "},"¼":{"ha":642,"x_min":0,"x_max":535,"o":"m 0 642 l 107 642 l 107 856 l 0 856 l 0 963 l 107 1069 l 214 1069 l 214 642 l 321 642 l 321 535 l 0 535 l 0 642 m 428 107 l 214 107 l 214 214 l 428 535 l 535 535 l 535 0 l 428 0 l 428 107 m 428 342 l 343 214 l 428 214 l 428 342 z "},"½":{"ha":642,"x_min":0,"x_max":535,"o":"m 0 642 l 107 642 l 107 856 l 0 856 l 0 963 l 107 1069 l 214 1069 l 214 642 l 321 642 l 321 535 l 0 535 l 0 642 m 431 325 l 431 378 q 413 414 431 397 q 376 431 396 431 q 339 413 356 431 q 322 376 322 396 l 322 322 l 215 322 l 215 375 q 229 433 215 404 q 265 485 243 463 q 316 521 288 507 q 375 535 344 535 q 433 521 404 535 q 485 484 463 507 q 521 433 507 461 q 535 374 535 404 l 535 276 l 365 107 l 535 107 l 535 0 l 214 0 l 214 107 l 431 325 z "},"¾":{"ha":642,"x_min":0,"x_max":542,"o":"m 7 649 l 167 649 q 203 665 186 649 q 219 701 219 682 q 202 738 219 721 q 165 754 185 754 l 165 861 q 201 878 185 861 q 218 914 218 894 q 201 950 218 933 q 164 967 183 967 q 126 949 143 967 q 110 913 110 932 l 110 858 l 3 858 l 3 911 q 17 969 3 940 q 53 1021 31 999 q 103 1057 75 1043 q 163 1071 132 1071 q 221 1057 192 1071 q 272 1020 250 1043 q 308 969 294 997 q 322 910 322 940 q 312 853 322 881 q 282 803 301 825 q 312 753 301 781 q 322 696 322 725 q 308 637 322 665 q 272 585 294 608 q 220 549 249 563 q 161 535 192 535 l 0 535 l 7 649 m 435 114 l 221 114 l 221 221 l 435 542 l 542 542 l 542 7 l 435 7 l 435 114 m 435 349 l 350 221 l 435 221 l 435 349 z "},"¿":{"ha":642,"x_min":0,"x_max":535,"o":"m 214 642 l 214 749 l 321 749 l 321 597 l 107 383 l 107 214 q 116 175 107 194 q 140 140 125 156 q 175 116 156 125 q 214 107 194 107 l 321 107 q 360 116 342 107 q 394 140 379 125 q 419 175 410 156 q 428 214 428 194 l 428 321 l 535 321 l 535 214 q 517 135 535 174 q 468 67 499 97 q 399 18 438 36 q 321 0 361 0 l 214 0 q 135 18 174 0 q 67 67 97 36 q 18 135 36 97 q 0 214 0 174 l 0 428 l 214 642 m 271 860 q 233 876 250 860 q 217 913 217 893 q 233 949 217 932 q 269 965 250 965 q 306 948 289 965 q 322 911 322 931 q 305 874 322 890 q 268 857 288 857 l 271 860 z "},"À":{"ha":642,"x_min":0,"x_max":535,"o":"m 1 483 l 268 750 l 535 482 l 535 0 l 428 0 l 428 214 l 107 214 l 107 0 l 0 0 l 1 483 m 431 325 l 431 442 l 269 601 l 108 440 l 108 324 l 431 325 m 249 860 l 110 999 l 110 1074 l 185 1074 l 324 935 l 324 860 l 249 860 z "},"Á":{"ha":642,"x_min":0,"x_max":535,"o":"m 1 483 l 268 750 l 535 482 l 535 0 l 428 0 l 428 214 l 107 214 l 107 0 l 0 0 l 1 483 m 431 325 l 431 442 l 269 601 l 108 440 l 108 324 l 431 325 m 217 935 l 356 1074 l 431 1074 l 431 999 l 292 860 l 217 860 l 217 935 z "},"Â":{"ha":642,"x_min":0,"x_max":535,"o":"m 1 483 l 268 750 l 535 482 l 535 0 l 428 0 l 428 214 l 107 214 l 107 0 l 0 0 l 1 483 m 431 325 l 431 442 l 269 601 l 108 440 l 108 324 l 431 325 m 110 915 l 269 1075 l 429 914 l 429 860 l 332 860 l 269 922 l 207 860 l 110 860 l 110 915 z "},"Ã":{"ha":642,"x_min":0,"x_max":539,"o":"m 1 483 l 268 750 l 535 482 l 535 0 l 428 0 l 428 214 l 107 214 l 107 0 l 0 0 l 1 483 m 431 325 l 431 442 l 269 601 l 108 440 l 108 324 l 431 325 m 6 918 q 19 976 6 947 q 56 1028 33 1006 q 106 1064 78 1050 q 165 1078 135 1078 q 261 1046 218 1078 l 347 982 q 379 971 363 971 q 415 988 399 971 q 432 1024 432 1004 l 432 1076 l 539 1076 l 539 1022 q 525 963 539 992 q 488 912 511 935 q 437 875 465 889 q 378 861 408 861 q 282 893 325 861 l 196 957 q 164 968 181 968 q 126 951 143 968 q 110 914 110 933 l 110 860 l 3 860 l 6 918 z "},"Ä":{"ha":642,"x_min":0,"x_max":535,"o":"m 1 483 l 268 750 l 535 482 l 535 0 l 428 0 l 428 214 l 107 214 l 107 0 l 0 0 l 1 483 m 431 325 l 431 442 l 269 601 l 108 440 l 108 324 l 431 325 m 167 864 q 129 881 146 864 q 113 917 113 897 q 129 953 113 936 q 165 969 146 969 q 201 952 185 969 q 218 915 218 935 q 201 878 218 894 q 164 861 183 861 l 167 864 m 383 868 q 346 885 363 868 q 329 921 329 901 q 346 957 329 940 q 382 974 363 974 q 418 956 401 974 q 435 919 435 939 q 417 882 435 899 q 381 865 400 865 l 383 868 z "},"Å":{"ha":642,"x_min":0,"x_max":535,"o":"m 1 483 l 268 750 l 535 482 l 535 0 l 428 0 l 428 214 l 107 214 l 107 0 l 0 0 l 1 483 m 431 325 l 431 442 l 269 601 l 108 440 l 108 324 l 431 325 m 271 860 q 232 869 251 860 q 197 893 213 878 q 173 928 182 908 q 164 967 164 947 q 173 1006 164 988 q 197 1040 182 1025 q 232 1065 213 1056 q 271 1074 251 1074 q 310 1065 292 1074 q 344 1040 329 1056 q 369 1006 360 1025 q 378 967 378 988 q 369 928 378 947 q 344 893 360 908 q 310 869 329 878 q 271 860 292 860 m 274 917 q 310 933 293 917 q 326 969 326 950 q 309 1006 326 989 q 272 1022 292 1022 q 235 1005 251 1022 q 218 968 218 988 q 235 931 218 947 q 271 914 251 914 l 274 917 z "},"Æ":{"ha":642,"x_min":0,"x_max":535,"o":"m 0 749 l 214 963 l 535 963 l 535 856 l 321 856 l 321 535 l 428 535 l 428 428 l 321 428 l 321 107 l 535 107 l 535 0 l 214 0 l 214 321 l 107 321 l 107 0 l 0 0 l 0 749 m 214 428 l 214 811 l 107 704 l 107 428 l 214 428 z "},"Ç":{"ha":642,"x_min":0,"x_max":535,"o":"m 0 751 q 18 830 0 792 q 67 899 36 868 q 135 947 97 929 q 214 965 174 965 l 321 965 q 399 947 361 965 q 468 899 438 929 q 517 830 499 868 q 535 751 535 792 l 428 751 q 419 791 428 772 q 394 825 410 810 q 360 849 379 840 q 321 858 342 858 l 214 858 q 175 849 194 858 q 140 825 156 840 q 116 791 125 810 q 107 751 107 772 l 107 217 q 116 178 107 197 q 140 143 125 158 q 175 119 156 128 q 214 110 194 110 l 321 110 q 360 119 342 110 q 394 143 379 128 q 419 178 410 158 q 428 217 428 197 l 535 217 q 517 138 535 176 q 468 69 499 100 q 399 21 438 39 q 321 3 361 3 l 321 -51 l 347 -51 q 403 -76 378 -51 q 428 -132 428 -101 q 403 -187 428 -162 q 347 -212 378 -212 l 107 -212 l 107 -160 l 347 -160 q 365 -152 357 -160 q 374 -133 374 -144 q 366 -115 374 -124 q 347 -107 358 -107 l 214 -107 l 214 0 q 135 18 174 0 q 67 67 97 36 q 18 135 36 97 q 0 214 0 174 l 0 751 z "},"È":{"ha":642,"x_min":0,"x_max":535,"o":"m 0 749 l 535 749 l 535 642 l 107 642 l 107 428 l 428 428 l 428 321 l 107 321 l 107 107 l 535 107 l 535 0 l 0 0 l 0 749 m 246 856 l 107 994 l 107 1069 l 182 1069 l 321 931 l 321 856 l 246 856 z "},"É":{"ha":642,"x_min":0,"x_max":535,"o":"m 0 749 l 535 749 l 535 642 l 107 642 l 107 428 l 428 428 l 428 321 l 107 321 l 107 107 l 535 107 l 535 0 l 0 0 l 0 749 m 214 931 l 353 1069 l 428 1069 l 428 994 l 289 856 l 214 856 l 214 931 z "},"Ê":{"ha":642,"x_min":0,"x_max":535,"o":"m 0 749 l 535 749 l 535 642 l 107 642 l 107 428 l 428 428 l 428 321 l 107 321 l 107 107 l 535 107 l 535 0 l 0 0 l 0 749 m 107 911 l 267 1071 l 426 910 l 426 856 l 329 856 l 267 918 l 204 856 l 107 856 l 107 911 z "},"Ë":{"ha":642,"x_min":0,"x_max":535,"o":"m 0 749 l 535 749 l 535 642 l 107 642 l 107 428 l 428 428 l 428 321 l 107 321 l 107 107 l 535 107 l 535 0 l 0 0 l 0 749 m 164 860 q 126 876 143 860 q 110 913 110 893 q 126 949 110 932 q 163 965 143 965 q 199 948 182 965 q 215 911 215 931 q 198 874 215 890 q 161 857 181 857 l 164 860 m 381 864 q 343 881 360 864 q 326 917 326 897 q 343 953 326 936 q 379 969 360 969 q 415 952 399 969 q 432 915 432 935 q 415 878 432 894 q 378 861 397 861 l 381 864 z "},"Ì":{"ha":642,"x_min":107,"x_max":428,"o":"m 107 107 l 214 107 l 214 642 l 107 642 l 107 749 l 428 749 l 428 642 l 321 642 l 321 107 l 428 107 l 428 0 l 107 0 l 107 107 m 246 856 l 107 994 l 107 1069 l 182 1069 l 321 931 l 321 856 l 246 856 z "},"Í":{"ha":642,"x_min":107,"x_max":428,"o":"m 107 107 l 214 107 l 214 642 l 107 642 l 107 749 l 428 749 l 428 642 l 321 642 l 321 107 l 428 107 l 428 0 l 107 0 l 107 107 m 214 931 l 353 1069 l 428 1069 l 428 994 l 289 856 l 214 856 l 214 931 z "},"Î":{"ha":642,"x_min":107,"x_max":428,"o":"m 107 107 l 214 107 l 214 642 l 107 642 l 107 749 l 428 749 l 428 642 l 321 642 l 321 107 l 428 107 l 428 0 l 107 0 l 107 107 m 107 911 l 267 1071 l 426 910 l 426 856 l 329 856 l 267 918 l 204 856 l 107 856 l 107 911 z "},"Ï":{"ha":642,"x_min":107,"x_max":432,"o":"m 107 107 l 214 107 l 214 642 l 107 642 l 107 749 l 428 749 l 428 642 l 321 642 l 321 107 l 428 107 l 428 0 l 107 0 l 107 107 m 164 860 q 126 876 143 860 q 110 913 110 893 q 126 949 110 932 q 163 965 143 965 q 199 948 182 965 q 215 911 215 931 q 198 874 215 890 q 161 857 181 857 l 164 860 m 381 864 q 343 881 360 864 q 326 917 326 897 q 343 953 326 936 q 379 969 360 969 q 415 952 399 969 q 432 915 432 935 q 415 878 432 894 q 378 861 397 861 l 381 864 z "},"Ð":{"ha":642,"x_min":0,"x_max":535,"o":"m 0 107 l 107 107 l 107 428 l 0 428 l 0 535 l 107 535 l 107 856 l 0 856 l 0 963 l 321 963 q 399 944 361 963 q 468 896 438 926 q 517 827 499 865 q 535 749 535 789 l 535 214 q 517 135 535 174 q 468 67 499 97 q 399 18 438 36 q 321 0 361 0 l 0 0 l 0 107 m 321 107 q 360 116 342 107 q 394 140 379 125 q 419 175 410 156 q 428 214 428 194 l 428 749 q 419 788 428 769 q 394 822 410 807 q 360 847 379 838 q 321 856 342 856 l 214 856 l 214 535 l 321 535 l 321 428 l 214 428 l 214 107 l 321 107 z "},"Ñ":{"ha":642,"x_min":0,"x_max":536,"o":"m 0 749 l 107 749 l 428 210 l 428 749 l 535 749 l 535 0 l 428 0 l 107 539 l 107 0 l 0 0 l 0 749 m 3 914 q 17 972 3 943 q 53 1024 31 1001 q 103 1060 75 1046 q 163 1074 132 1074 q 258 1042 215 1074 l 344 978 q 376 967 360 967 q 413 983 396 967 q 429 1019 429 1000 l 429 1072 l 536 1072 l 536 1018 q 522 959 536 988 q 485 908 508 931 q 434 871 463 885 q 375 857 406 857 q 279 889 322 857 l 193 953 q 161 964 178 964 q 124 947 140 964 q 107 910 107 929 l 107 856 l 0 856 l 3 914 z "},"Ò":{"ha":642,"x_min":0,"x_max":535,"o":"m 0 535 q 18 613 0 575 q 67 682 36 651 q 135 731 97 713 q 214 749 174 749 l 321 749 q 399 731 361 749 q 468 682 438 713 q 517 613 499 651 q 535 535 535 575 l 535 214 q 517 135 535 174 q 468 67 499 97 q 399 18 438 36 q 321 0 361 0 l 214 0 q 135 18 174 0 q 67 67 97 36 q 18 135 36 97 q 0 214 0 174 l 0 535 m 321 107 q 360 116 342 107 q 394 140 379 125 q 419 175 410 156 q 428 214 428 194 l 428 535 q 419 574 428 556 q 394 608 410 593 q 360 633 379 624 q 321 642 342 642 l 214 642 q 175 633 194 642 q 140 608 156 624 q 116 574 125 593 q 107 535 107 556 l 107 214 q 116 175 107 194 q 140 140 125 156 q 175 116 156 125 q 214 107 194 107 l 321 107 m 246 856 l 107 994 l 107 1069 l 182 1069 l 321 931 l 321 856 l 246 856 z "},"Ó":{"ha":642,"x_min":0,"x_max":535,"o":"m 0 535 q 18 613 0 575 q 67 682 36 651 q 135 731 97 713 q 214 749 174 749 l 321 749 q 399 731 361 749 q 468 682 438 713 q 517 613 499 651 q 535 535 535 575 l 535 214 q 517 135 535 174 q 468 67 499 97 q 399 18 438 36 q 321 0 361 0 l 214 0 q 135 18 174 0 q 67 67 97 36 q 18 135 36 97 q 0 214 0 174 l 0 535 m 321 107 q 360 116 342 107 q 394 140 379 125 q 419 175 410 156 q 428 214 428 194 l 428 535 q 419 574 428 556 q 394 608 410 593 q 360 633 379 624 q 321 642 342 642 l 214 642 q 175 633 194 642 q 140 608 156 624 q 116 574 125 593 q 107 535 107 556 l 107 214 q 116 175 107 194 q 140 140 125 156 q 175 116 156 125 q 214 107 194 107 l 321 107 m 214 931 l 353 1069 l 428 1069 l 428 994 l 289 856 l 214 856 l 214 931 z "},"Ô":{"ha":642,"x_min":0,"x_max":535,"o":"m 0 535 q 18 613 0 575 q 67 682 36 651 q 135 731 97 713 q 214 749 174 749 l 321 749 q 399 731 361 749 q 468 682 438 713 q 517 613 499 651 q 535 535 535 575 l 535 214 q 517 135 535 174 q 468 67 499 97 q 399 18 438 36 q 321 0 361 0 l 214 0 q 135 18 174 0 q 67 67 97 36 q 18 135 36 97 q 0 214 0 174 l 0 535 m 321 107 q 360 116 342 107 q 394 140 379 125 q 419 175 410 156 q 428 214 428 194 l 428 535 q 419 574 428 556 q 394 608 410 593 q 360 633 379 624 q 321 642 342 642 l 214 642 q 175 633 194 642 q 140 608 156 624 q 116 574 125 593 q 107 535 107 556 l 107 214 q 116 175 107 194 q 140 140 125 156 q 175 116 156 125 q 214 107 194 107 l 321 107 m 107 911 l 267 1071 l 426 910 l 426 856 l 329 856 l 267 918 l 204 856 l 107 856 l 107 911 z "},"Õ":{"ha":642,"x_min":0,"x_max":536,"o":"m 0 535 q 18 613 0 575 q 67 682 36 651 q 135 731 97 713 q 214 749 174 749 l 321 749 q 399 731 361 749 q 468 682 438 713 q 517 613 499 651 q 535 535 535 575 l 535 214 q 517 135 535 174 q 468 67 499 97 q 399 18 438 36 q 321 0 361 0 l 214 0 q 135 18 174 0 q 67 67 97 36 q 18 135 36 97 q 0 214 0 174 l 0 535 m 321 107 q 360 116 342 107 q 394 140 379 125 q 419 175 410 156 q 428 214 428 194 l 428 535 q 419 574 428 556 q 394 608 410 593 q 360 633 379 624 q 321 642 342 642 l 214 642 q 175 633 194 642 q 140 608 156 624 q 116 574 125 593 q 107 535 107 556 l 107 214 q 116 175 107 194 q 140 140 125 156 q 175 116 156 125 q 214 107 194 107 l 321 107 m 3 914 q 17 972 3 943 q 53 1024 31 1001 q 103 1060 75 1046 q 163 1074 132 1074 q 258 1042 215 1074 l 344 978 q 376 967 360 967 q 413 983 396 967 q 429 1019 429 1000 l 429 1072 l 536 1072 l 536 1018 q 522 959 536 988 q 485 908 508 931 q 434 871 463 885 q 375 857 406 857 q 279 889 322 857 l 193 953 q 161 964 178 964 q 124 947 140 964 q 107 910 107 929 l 107 856 l 0 856 l 3 914 z "},"Ö":{"ha":642,"x_min":0,"x_max":535,"o":"m 0 535 q 18 613 0 575 q 67 682 36 651 q 135 731 97 713 q 214 749 174 749 l 321 749 q 399 731 361 749 q 468 682 438 713 q 517 613 499 651 q 535 535 535 575 l 535 214 q 517 135 535 174 q 468 67 499 97 q 399 18 438 36 q 321 0 361 0 l 214 0 q 135 18 174 0 q 67 67 97 36 q 18 135 36 97 q 0 214 0 174 l 0 535 m 321 107 q 360 116 342 107 q 394 140 379 125 q 419 175 410 156 q 428 214 428 194 l 428 535 q 419 574 428 556 q 394 608 410 593 q 360 633 379 624 q 321 642 342 642 l 214 642 q 175 633 194 642 q 140 608 156 624 q 116 574 125 593 q 107 535 107 556 l 107 214 q 116 175 107 194 q 140 140 125 156 q 175 116 156 125 q 214 107 194 107 l 321 107 m 164 860 q 126 876 143 860 q 110 913 110 893 q 126 949 110 932 q 163 965 143 965 q 199 948 182 965 q 215 911 215 931 q 198 874 215 890 q 161 857 181 857 l 164 860 m 381 864 q 343 881 360 864 q 326 917 326 897 q 343 953 326 936 q 379 969 360 969 q 415 952 399 969 q 432 915 432 935 q 415 878 432 894 q 378 861 397 861 l 381 864 z "},"×":{"ha":642,"x_min":0,"x_max":533,"o":"m 0 182 l 192 374 l 0 565 l 75 640 l 267 449 l 458 640 l 533 565 l 342 374 l 533 182 l 458 107 l 267 299 l 75 107 l 0 182 z "},"Ø":{"ha":642,"x_min":0,"x_max":535,"o":"m 0 749 q 18 827 0 789 q 67 896 36 865 q 135 944 97 926 q 214 963 174 963 l 321 963 q 372 956 344 963 l 413 1069 l 535 1069 l 475 897 q 519 829 503 868 q 535 749 535 790 l 535 214 q 517 135 535 174 q 468 67 499 97 q 399 18 438 36 q 321 0 361 0 l 214 0 q 163 7 190 0 l 122 -107 l 0 -107 l 60 65 q 16 133 32 94 q 0 214 0 172 l 0 749 m 107 214 q 108 206 107 210 q 108 200 108 203 l 338 854 q 321 856 332 856 l 214 856 q 175 847 194 856 q 140 822 156 838 q 116 788 125 807 q 107 749 107 769 l 107 214 m 428 749 q 427 756 428 753 q 426 763 426 760 l 197 108 q 214 107 203 107 l 321 107 q 360 116 342 107 q 394 140 379 125 q 419 175 410 156 q 428 214 428 194 l 428 749 z "},"Ù":{"ha":642,"x_min":0,"x_max":535,"o":"m 0 749 l 107 749 l 107 214 q 116 175 107 194 q 140 140 125 156 q 175 116 156 125 q 214 107 194 107 l 321 107 q 360 116 342 107 q 394 140 379 125 q 419 175 410 156 q 428 214 428 194 l 428 749 l 535 749 l 535 214 q 517 135 535 174 q 468 67 499 97 q 399 18 438 36 q 321 0 361 0 l 214 0 q 135 18 174 0 q 67 67 97 36 q 18 135 36 97 q 0 214 0 174 l 0 749 m 246 856 l 107 994 l 107 1069 l 182 1069 l 321 931 l 321 856 l 246 856 z "},"Ú":{"ha":642,"x_min":0,"x_max":535,"o":"m 0 749 l 107 749 l 107 214 q 116 175 107 194 q 140 140 125 156 q 175 116 156 125 q 214 107 194 107 l 321 107 q 360 116 342 107 q 394 140 379 125 q 419 175 410 156 q 428 214 428 194 l 428 749 l 535 749 l 535 214 q 517 135 535 174 q 468 67 499 97 q 399 18 438 36 q 321 0 361 0 l 214 0 q 135 18 174 0 q 67 67 97 36 q 18 135 36 97 q 0 214 0 174 l 0 749 m 214 931 l 353 1069 l 428 1069 l 428 994 l 289 856 l 214 856 l 214 931 z "},"Û":{"ha":642,"x_min":0,"x_max":535,"o":"m 0 749 l 107 749 l 107 214 q 116 175 107 194 q 140 140 125 156 q 175 116 156 125 q 214 107 194 107 l 321 107 q 360 116 342 107 q 394 140 379 125 q 419 175 410 156 q 428 214 428 194 l 428 749 l 535 749 l 535 214 q 517 135 535 174 q 468 67 499 97 q 399 18 438 36 q 321 0 361 0 l 214 0 q 135 18 174 0 q 67 67 97 36 q 18 135 36 97 q 0 214 0 174 l 0 749 m 107 911 l 267 1071 l 426 910 l 426 856 l 329 856 l 267 918 l 204 856 l 107 856 l 107 911 z "},"Ü":{"ha":642,"x_min":0,"x_max":535,"o":"m 0 749 l 107 749 l 107 214 q 116 175 107 194 q 140 140 125 156 q 175 116 156 125 q 214 107 194 107 l 321 107 q 360 116 342 107 q 394 140 379 125 q 419 175 410 156 q 428 214 428 194 l 428 749 l 535 749 l 535 214 q 517 135 535 174 q 468 67 499 97 q 399 18 438 36 q 321 0 361 0 l 214 0 q 135 18 174 0 q 67 67 97 36 q 18 135 36 97 q 0 214 0 174 l 0 749 m 164 860 q 126 876 143 860 q 110 913 110 893 q 126 949 110 932 q 163 965 143 965 q 199 948 182 965 q 215 911 215 931 q 198 874 215 890 q 161 857 181 857 l 164 860 m 381 864 q 343 881 360 864 q 326 917 326 897 q 343 953 326 936 q 379 969 360 969 q 415 952 399 969 q 432 915 432 935 q 415 878 432 894 q 378 861 397 861 l 381 864 z "},"Ý":{"ha":642,"x_min":-1,"x_max":535,"o":"m 213 428 l -1 749 l 128 749 l 267 540 l 406 749 l 535 749 l 321 428 l 321 0 l 214 0 l 213 428 m 213 931 l 351 1069 l 426 1069 l 426 994 l 288 856 l 213 856 l 213 931 z "},"Þ":{"ha":642,"x_min":0,"x_max":535,"o":"m 0 963 l 107 963 l 107 856 l 321 856 q 399 838 361 856 q 468 789 438 819 q 517 720 499 758 q 535 642 535 682 l 535 535 q 517 456 535 494 q 468 388 499 418 q 399 339 438 357 q 321 321 361 321 l 107 321 l 107 0 l 0 0 l 0 963 m 321 428 q 360 437 342 428 q 394 461 379 446 q 419 496 410 476 q 428 535 428 515 l 428 642 q 419 681 428 663 q 394 715 410 700 q 360 740 379 731 q 321 749 342 749 l 107 749 l 107 428 l 321 428 z "},"ß":{"ha":642,"x_min":0,"x_max":538,"o":"m 0 749 q 18 827 0 789 q 67 896 36 865 q 135 944 97 926 q 214 963 174 963 q 292 944 254 963 q 361 896 331 926 q 410 827 392 865 q 428 749 428 789 q 423 715 428 732 q 407 685 418 699 l 343 599 q 322 535 322 571 q 334 487 322 510 q 365 449 346 464 l 451 385 q 515 310 492 356 q 538 214 538 264 q 519 135 538 174 q 471 67 501 97 q 402 18 440 36 q 324 0 364 0 l 217 0 l 217 107 l 324 107 q 363 116 344 107 q 397 140 382 125 q 422 175 413 156 q 431 214 431 194 q 419 262 431 239 q 388 300 407 285 l 301 364 q 238 439 261 393 q 215 535 215 485 q 236 599 215 571 l 300 685 q 321 749 321 711 q 312 788 321 769 q 288 822 303 807 q 253 847 272 838 q 214 856 235 856 q 175 847 194 856 q 140 822 156 838 q 116 788 125 807 q 107 749 107 769 l 107 0 l 0 0 l 0 749 z "},"à":{"ha":642,"x_min":0,"x_max":535,"o":"m 214 0 q 135 18 174 0 q 67 67 97 36 q 18 135 36 97 q 0 214 0 174 q 18 292 0 254 q 67 361 36 331 q 135 410 97 392 q 214 428 174 428 l 428 428 q 419 467 428 449 q 394 501 410 486 q 360 526 379 517 q 321 535 342 535 l 107 535 l 107 642 l 321 642 q 399 624 361 642 q 468 575 438 606 q 517 506 499 544 q 535 428 535 468 l 535 0 l 214 0 m 428 321 l 214 321 q 175 312 194 321 q 140 288 156 303 q 116 253 125 272 q 107 214 107 235 q 116 175 107 194 q 140 140 125 156 q 175 116 156 125 q 214 107 194 107 l 428 107 l 428 321 m 246 749 l 107 888 l 107 963 l 182 963 l 321 824 l 321 749 l 246 749 z "},"á":{"ha":642,"x_min":0,"x_max":535,"o":"m 214 0 q 135 18 174 0 q 67 67 97 36 q 18 135 36 97 q 0 214 0 174 q 18 292 0 254 q 67 361 36 331 q 135 410 97 392 q 214 428 174 428 l 428 428 q 419 467 428 449 q 394 501 410 486 q 360 526 379 517 q 321 535 342 535 l 107 535 l 107 642 l 321 642 q 399 624 361 642 q 468 575 438 606 q 517 506 499 544 q 535 428 535 468 l 535 0 l 214 0 m 428 321 l 214 321 q 175 312 194 321 q 140 288 156 303 q 116 253 125 272 q 107 214 107 235 q 116 175 107 194 q 140 140 125 156 q 175 116 156 125 q 214 107 194 107 l 428 107 l 428 321 m 214 824 l 353 963 l 428 963 l 428 888 l 289 749 l 214 749 l 214 824 z "},"â":{"ha":642,"x_min":0,"x_max":535,"o":"m 214 0 q 135 18 174 0 q 67 67 97 36 q 18 135 36 97 q 0 214 0 174 q 18 292 0 254 q 67 361 36 331 q 135 410 97 392 q 214 428 174 428 l 428 428 q 419 467 428 449 q 394 501 410 486 q 360 526 379 517 q 321 535 342 535 l 107 535 l 107 642 l 321 642 q 399 624 361 642 q 468 575 438 606 q 517 506 499 544 q 535 428 535 468 l 535 0 l 214 0 m 428 321 l 214 321 q 175 312 194 321 q 140 288 156 303 q 116 253 125 272 q 107 214 107 235 q 116 175 107 194 q 140 140 125 156 q 175 116 156 125 q 214 107 194 107 l 428 107 l 428 321 m 107 804 l 267 964 l 426 803 l 426 749 l 329 749 l 267 811 l 204 749 l 107 749 l 107 804 z "},"ã":{"ha":642,"x_min":0,"x_max":536,"o":"m 214 0 q 135 18 174 0 q 67 67 97 36 q 18 135 36 97 q 0 214 0 174 q 18 292 0 254 q 67 361 36 331 q 135 410 97 392 q 214 428 174 428 l 428 428 q 419 467 428 449 q 394 501 410 486 q 360 526 379 517 q 321 535 342 535 l 107 535 l 107 642 l 321 642 q 399 624 361 642 q 468 575 438 606 q 517 506 499 544 q 535 428 535 468 l 535 0 l 214 0 m 428 321 l 214 321 q 175 312 194 321 q 140 288 156 303 q 116 253 125 272 q 107 214 107 235 q 116 175 107 194 q 140 140 125 156 q 175 116 156 125 q 214 107 194 107 l 428 107 l 428 321 m 3 807 q 17 865 3 836 q 53 917 31 894 q 103 953 75 939 q 163 967 132 967 q 258 935 215 967 l 344 871 q 376 860 360 860 q 413 876 396 860 q 429 913 429 893 l 429 965 l 536 965 l 536 911 q 522 852 536 881 q 485 801 508 824 q 434 764 463 778 q 375 750 406 750 q 279 782 322 750 l 193 846 q 161 857 178 857 q 124 840 140 857 q 107 803 107 822 l 107 749 l 0 749 l 3 807 z "},"ä":{"ha":642,"x_min":0,"x_max":535,"o":"m 214 0 q 135 18 174 0 q 67 67 97 36 q 18 135 36 97 q 0 214 0 174 q 18 292 0 254 q 67 361 36 331 q 135 410 97 392 q 214 428 174 428 l 428 428 q 419 467 428 449 q 394 501 410 486 q 360 526 379 517 q 321 535 342 535 l 107 535 l 107 642 l 321 642 q 399 624 361 642 q 468 575 438 606 q 517 506 499 544 q 535 428 535 468 l 535 0 l 214 0 m 428 321 l 214 321 q 175 312 194 321 q 140 288 156 303 q 116 253 125 272 q 107 214 107 235 q 116 175 107 194 q 140 140 125 156 q 175 116 156 125 q 214 107 194 107 l 428 107 l 428 321 m 164 753 q 126 769 143 753 q 110 806 110 786 q 126 842 110 825 q 163 858 143 858 q 199 841 182 858 q 215 804 215 824 q 198 767 215 783 q 161 750 181 750 l 164 753 m 381 757 q 343 774 360 757 q 326 810 326 790 q 343 846 326 829 q 379 863 360 863 q 415 845 399 863 q 432 808 432 828 q 415 771 432 788 q 378 754 397 754 l 381 757 z "},"å":{"ha":642,"x_min":0,"x_max":535,"o":"m 214 0 q 135 18 174 0 q 67 67 97 36 q 18 135 36 97 q 0 214 0 174 q 18 292 0 254 q 67 361 36 331 q 135 410 97 392 q 214 428 174 428 l 428 428 q 419 467 428 449 q 394 501 410 486 q 360 526 379 517 q 321 535 342 535 l 107 535 l 107 642 l 321 642 q 399 624 361 642 q 468 575 438 606 q 517 506 499 544 q 535 428 535 468 l 535 0 l 214 0 m 428 321 l 214 321 q 175 312 194 321 q 140 288 156 303 q 116 253 125 272 q 107 214 107 235 q 116 175 107 194 q 140 140 125 156 q 175 116 156 125 q 214 107 194 107 l 428 107 l 428 321 m 268 749 q 229 758 249 749 q 194 782 210 767 q 170 817 179 797 q 161 856 161 836 q 170 895 161 876 q 194 929 179 914 q 229 953 210 944 q 268 963 249 963 q 308 953 289 963 q 342 929 326 944 q 366 895 357 914 q 375 856 375 876 q 366 817 375 836 q 342 782 357 797 q 308 758 326 767 q 268 749 289 749 m 271 806 q 307 822 290 806 q 324 858 324 839 q 306 894 324 878 q 269 911 289 911 q 232 894 249 911 q 215 857 215 876 q 232 819 215 836 q 268 803 249 803 l 271 806 z "},"æ":{"ha":642,"x_min":0,"x_max":539,"o":"m 7 275 q 21 333 7 304 q 57 385 35 363 q 108 421 79 407 q 167 435 136 435 l 219 435 l 219 542 l 113 542 l 113 649 l 379 649 q 438 635 408 649 q 489 598 467 621 q 525 547 511 575 q 539 488 539 518 q 525 428 539 457 q 488 377 511 400 q 437 340 465 354 q 378 326 408 326 l 324 326 l 324 165 q 340 128 324 144 q 376 111 357 111 q 413 128 396 111 q 429 164 429 144 l 429 217 l 536 217 l 536 163 q 522 103 536 132 q 485 52 508 75 q 434 15 463 29 q 375 1 406 1 q 318 12 346 1 q 268 42 290 22 q 218 12 246 22 q 161 1 190 1 q 102 15 131 1 q 51 51 74 29 q 14 102 28 74 q 0 161 0 131 l 7 275 m 224 117 l 224 331 l 169 331 q 132 313 149 331 q 115 276 115 296 l 115 169 q 132 132 115 149 q 168 115 149 115 l 224 117 m 388 439 q 424 456 407 439 q 440 492 440 472 q 423 528 440 511 q 386 544 406 544 l 332 544 l 332 438 l 388 439 z "},"ç":{"ha":642,"x_min":0,"x_max":535,"o":"m 0 431 q 18 509 0 471 q 67 578 36 547 q 135 626 97 608 q 214 644 174 644 l 321 644 q 399 626 361 644 q 468 578 438 608 q 517 509 499 547 q 535 431 535 471 l 428 431 q 419 470 428 451 q 394 504 410 489 q 360 528 379 519 q 321 538 342 538 l 214 538 q 175 528 194 538 q 140 504 156 519 q 116 470 125 489 q 107 431 107 451 l 107 217 q 116 178 107 197 q 140 143 125 158 q 175 119 156 128 q 214 110 194 110 l 321 110 q 360 119 342 110 q 394 143 379 128 q 419 178 410 158 q 428 217 428 197 l 535 217 q 517 138 535 176 q 468 69 499 100 q 399 21 438 39 q 321 3 361 3 l 321 -51 l 347 -51 q 403 -76 378 -51 q 428 -132 428 -101 q 403 -187 428 -162 q 347 -212 378 -212 l 107 -212 l 107 -160 l 347 -160 q 365 -152 357 -160 q 374 -133 374 -144 q 366 -115 374 -124 q 347 -107 358 -107 l 214 -107 l 214 0 q 135 18 174 0 q 67 67 97 36 q 18 135 36 97 q 0 214 0 174 l 0 431 z "},"è":{"ha":642,"x_min":0,"x_max":535,"o":"m 214 0 q 135 18 174 0 q 67 67 97 36 q 18 135 36 97 q 0 214 0 174 l 0 428 q 18 506 0 468 q 67 575 36 544 q 135 624 97 606 q 214 642 174 642 l 321 642 q 399 624 361 642 q 468 575 438 606 q 517 506 499 544 q 535 428 535 468 l 535 321 l 107 321 l 107 214 q 116 175 107 194 q 140 140 125 156 q 175 116 156 125 q 214 107 194 107 l 321 107 q 360 116 342 107 q 394 140 379 125 q 419 175 410 156 q 428 214 428 194 l 535 214 q 517 135 535 174 q 468 67 499 97 q 399 18 438 36 q 321 0 361 0 l 214 0 m 428 428 q 419 467 428 449 q 394 501 410 486 q 360 526 379 517 q 321 535 342 535 l 214 535 q 175 526 194 535 q 140 501 156 517 q 116 467 125 486 q 107 428 107 449 l 428 428 m 246 749 l 107 888 l 107 963 l 182 963 l 321 824 l 321 749 l 246 749 z "},"é":{"ha":642,"x_min":0,"x_max":535,"o":"m 214 0 q 135 18 174 0 q 67 67 97 36 q 18 135 36 97 q 0 214 0 174 l 0 428 q 18 506 0 468 q 67 575 36 544 q 135 624 97 606 q 214 642 174 642 l 321 642 q 399 624 361 642 q 468 575 438 606 q 517 506 499 544 q 535 428 535 468 l 535 321 l 107 321 l 107 214 q 116 175 107 194 q 140 140 125 156 q 175 116 156 125 q 214 107 194 107 l 321 107 q 360 116 342 107 q 394 140 379 125 q 419 175 410 156 q 428 214 428 194 l 535 214 q 517 135 535 174 q 468 67 499 97 q 399 18 438 36 q 321 0 361 0 l 214 0 m 428 428 q 419 467 428 449 q 394 501 410 486 q 360 526 379 517 q 321 535 342 535 l 214 535 q 175 526 194 535 q 140 501 156 517 q 116 467 125 486 q 107 428 107 449 l 428 428 m 214 824 l 353 963 l 428 963 l 428 888 l 289 749 l 214 749 l 214 824 z "},"ê":{"ha":642,"x_min":0,"x_max":535,"o":"m 214 0 q 135 18 174 0 q 67 67 97 36 q 18 135 36 97 q 0 214 0 174 l 0 428 q 18 506 0 468 q 67 575 36 544 q 135 624 97 606 q 214 642 174 642 l 321 642 q 399 624 361 642 q 468 575 438 606 q 517 506 499 544 q 535 428 535 468 l 535 321 l 107 321 l 107 214 q 116 175 107 194 q 140 140 125 156 q 175 116 156 125 q 214 107 194 107 l 321 107 q 360 116 342 107 q 394 140 379 125 q 419 175 410 156 q 428 214 428 194 l 535 214 q 517 135 535 174 q 468 67 499 97 q 399 18 438 36 q 321 0 361 0 l 214 0 m 428 428 q 419 467 428 449 q 394 501 410 486 q 360 526 379 517 q 321 535 342 535 l 214 535 q 175 526 194 535 q 140 501 156 517 q 116 467 125 486 q 107 428 107 449 l 428 428 m 107 804 l 267 964 l 426 803 l 426 749 l 329 749 l 267 811 l 204 749 l 107 749 l 107 804 z "},"ë":{"ha":642,"x_min":0,"x_max":535,"o":"m 214 0 q 135 18 174 0 q 67 67 97 36 q 18 135 36 97 q 0 214 0 174 l 0 428 q 18 506 0 468 q 67 575 36 544 q 135 624 97 606 q 214 642 174 642 l 321 642 q 399 624 361 642 q 468 575 438 606 q 517 506 499 544 q 535 428 535 468 l 535 321 l 107 321 l 107 214 q 116 175 107 194 q 140 140 125 156 q 175 116 156 125 q 214 107 194 107 l 321 107 q 360 116 342 107 q 394 140 379 125 q 419 175 410 156 q 428 214 428 194 l 535 214 q 517 135 535 174 q 468 67 499 97 q 399 18 438 36 q 321 0 361 0 l 214 0 m 428 428 q 419 467 428 449 q 394 501 410 486 q 360 526 379 517 q 321 535 342 535 l 214 535 q 175 526 194 535 q 140 501 156 517 q 116 467 125 486 q 107 428 107 449 l 428 428 m 164 753 q 126 769 143 753 q 110 806 110 786 q 126 842 110 825 q 163 858 143 858 q 199 841 182 858 q 215 804 215 824 q 198 767 215 783 q 161 750 181 750 l 164 753 m 381 757 q 343 774 360 757 q 326 810 326 790 q 343 846 326 829 q 379 863 360 863 q 415 845 399 863 q 432 808 432 828 q 415 771 432 788 q 378 754 397 754 l 381 757 z "},"ì":{"ha":642,"x_min":107,"x_max":428,"o":"m 107 107 l 214 107 l 214 535 l 107 535 l 107 642 l 321 642 l 321 107 l 428 107 l 428 0 l 107 0 l 107 107 m 246 749 l 107 888 l 107 963 l 182 963 l 321 824 l 321 749 l 246 749 z "},"í":{"ha":642,"x_min":107,"x_max":428,"o":"m 107 107 l 214 107 l 214 535 l 107 535 l 107 642 l 321 642 l 321 107 l 428 107 l 428 0 l 107 0 l 107 107 m 214 824 l 353 963 l 428 963 l 428 888 l 289 749 l 214 749 l 214 824 z "},"î":{"ha":642,"x_min":107,"x_max":428,"o":"m 107 107 l 214 107 l 214 535 l 107 535 l 107 642 l 321 642 l 321 107 l 428 107 l 428 0 l 107 0 l 107 107 m 107 804 l 267 964 l 426 803 l 426 749 l 329 749 l 267 811 l 204 749 l 107 749 l 107 804 z "},"ï":{"ha":642,"x_min":107,"x_max":432,"o":"m 107 107 l 214 107 l 214 535 l 107 535 l 107 642 l 321 642 l 321 107 l 428 107 l 428 0 l 107 0 l 107 107 m 164 753 q 126 769 143 753 q 110 806 110 786 q 126 842 110 825 q 163 858 143 858 q 199 841 182 858 q 215 804 215 824 q 198 767 215 783 q 161 750 181 750 l 164 753 m 381 757 q 343 774 360 757 q 326 810 326 790 q 343 846 326 829 q 379 863 360 863 q 415 845 399 863 q 432 808 432 828 q 415 771 432 788 q 378 754 397 754 l 381 757 z "},"ð":{"ha":642,"x_min":0,"x_max":535,"o":"m 0 426 q 18 505 0 467 q 67 574 36 543 q 135 622 97 604 q 214 640 174 640 l 331 640 l 239 817 l 144 767 l 94 861 l 189 911 l 107 1068 l 228 1068 l 283 961 l 378 1011 l 428 917 l 333 867 l 511 526 q 535 428 535 479 l 535 214 q 517 135 535 174 q 468 67 499 97 q 399 18 438 36 q 321 0 361 0 l 214 0 q 135 18 174 0 q 67 67 97 36 q 18 135 36 97 q 0 214 0 174 l 0 426 m 321 106 q 360 115 342 106 q 394 139 379 124 q 419 174 410 154 q 428 213 428 193 l 428 426 q 419 466 428 447 q 394 500 410 485 q 360 524 379 515 q 321 533 342 533 l 214 533 q 175 524 194 533 q 140 500 156 515 q 116 466 125 485 q 107 426 107 447 l 107 213 q 116 174 107 193 q 140 139 125 154 q 175 115 156 124 q 214 106 194 106 l 321 106 z "},"ñ":{"ha":642,"x_min":0,"x_max":536,"o":"m 0 642 l 107 642 l 107 613 q 214 642 154 642 l 321 642 q 399 624 361 642 q 468 575 438 606 q 517 506 499 544 q 535 428 535 468 l 535 0 l 428 0 l 428 428 q 419 467 428 449 q 394 501 410 486 q 360 526 379 517 q 321 535 342 535 l 214 535 q 175 526 194 535 q 140 501 156 517 q 116 467 125 486 q 107 428 107 449 l 107 0 l 0 0 l 0 642 m 3 807 q 17 865 3 836 q 53 917 31 894 q 103 953 75 939 q 163 967 132 967 q 258 935 215 967 l 344 871 q 376 860 360 860 q 413 876 396 860 q 429 913 429 893 l 429 965 l 536 965 l 536 911 q 522 852 536 881 q 485 801 508 824 q 434 764 463 778 q 375 750 406 750 q 279 782 322 750 l 193 846 q 161 857 178 857 q 124 840 140 857 q 107 803 107 822 l 107 749 l 0 749 l 3 807 z "},"ò":{"ha":642,"x_min":0,"x_max":535,"o":"m 0 428 q 18 506 0 468 q 67 575 36 544 q 135 624 97 606 q 214 642 174 642 l 321 642 q 399 624 361 642 q 468 575 438 606 q 517 506 499 544 q 535 428 535 468 l 535 214 q 517 135 535 174 q 468 67 499 97 q 399 18 438 36 q 321 0 361 0 l 214 0 q 135 18 174 0 q 67 67 97 36 q 18 135 36 97 q 0 214 0 174 l 0 428 m 321 107 q 360 116 342 107 q 394 140 379 125 q 419 175 410 156 q 428 214 428 194 l 428 428 q 419 467 428 449 q 394 501 410 486 q 360 526 379 517 q 321 535 342 535 l 214 535 q 175 526 194 535 q 140 501 156 517 q 116 467 125 486 q 107 428 107 449 l 107 214 q 116 175 107 194 q 140 140 125 156 q 175 116 156 125 q 214 107 194 107 l 321 107 m 246 749 l 107 888 l 107 963 l 182 963 l 321 824 l 321 749 l 246 749 z "},"ó":{"ha":642,"x_min":0,"x_max":535,"o":"m 0 428 q 18 506 0 468 q 67 575 36 544 q 135 624 97 606 q 214 642 174 642 l 321 642 q 399 624 361 642 q 468 575 438 606 q 517 506 499 544 q 535 428 535 468 l 535 214 q 517 135 535 174 q 468 67 499 97 q 399 18 438 36 q 321 0 361 0 l 214 0 q 135 18 174 0 q 67 67 97 36 q 18 135 36 97 q 0 214 0 174 l 0 428 m 321 107 q 360 116 342 107 q 394 140 379 125 q 419 175 410 156 q 428 214 428 194 l 428 428 q 419 467 428 449 q 394 501 410 486 q 360 526 379 517 q 321 535 342 535 l 214 535 q 175 526 194 535 q 140 501 156 517 q 116 467 125 486 q 107 428 107 449 l 107 214 q 116 175 107 194 q 140 140 125 156 q 175 116 156 125 q 214 107 194 107 l 321 107 m 214 824 l 353 963 l 428 963 l 428 888 l 289 749 l 214 749 l 214 824 z "},"ô":{"ha":642,"x_min":0,"x_max":535,"o":"m 0 428 q 18 506 0 468 q 67 575 36 544 q 135 624 97 606 q 214 642 174 642 l 321 642 q 399 624 361 642 q 468 575 438 606 q 517 506 499 544 q 535 428 535 468 l 535 214 q 517 135 535 174 q 468 67 499 97 q 399 18 438 36 q 321 0 361 0 l 214 0 q 135 18 174 0 q 67 67 97 36 q 18 135 36 97 q 0 214 0 174 l 0 428 m 321 107 q 360 116 342 107 q 394 140 379 125 q 419 175 410 156 q 428 214 428 194 l 428 428 q 419 467 428 449 q 394 501 410 486 q 360 526 379 517 q 321 535 342 535 l 214 535 q 175 526 194 535 q 140 501 156 517 q 116 467 125 486 q 107 428 107 449 l 107 214 q 116 175 107 194 q 140 140 125 156 q 175 116 156 125 q 214 107 194 107 l 321 107 m 107 804 l 267 964 l 426 803 l 426 749 l 329 749 l 267 811 l 204 749 l 107 749 l 107 804 z "},"õ":{"ha":642,"x_min":0,"x_max":536,"o":"m 0 428 q 18 506 0 468 q 67 575 36 544 q 135 624 97 606 q 214 642 174 642 l 321 642 q 399 624 361 642 q 468 575 438 606 q 517 506 499 544 q 535 428 535 468 l 535 214 q 517 135 535 174 q 468 67 499 97 q 399 18 438 36 q 321 0 361 0 l 214 0 q 135 18 174 0 q 67 67 97 36 q 18 135 36 97 q 0 214 0 174 l 0 428 m 321 107 q 360 116 342 107 q 394 140 379 125 q 419 175 410 156 q 428 214 428 194 l 428 428 q 419 467 428 449 q 394 501 410 486 q 360 526 379 517 q 321 535 342 535 l 214 535 q 175 526 194 535 q 140 501 156 517 q 116 467 125 486 q 107 428 107 449 l 107 214 q 116 175 107 194 q 140 140 125 156 q 175 116 156 125 q 214 107 194 107 l 321 107 m 3 807 q 17 865 3 836 q 53 917 31 894 q 103 953 75 939 q 163 967 132 967 q 258 935 215 967 l 344 871 q 376 860 360 860 q 413 876 396 860 q 429 913 429 893 l 429 965 l 536 965 l 536 911 q 522 852 536 881 q 485 801 508 824 q 434 764 463 778 q 375 750 406 750 q 279 782 322 750 l 193 846 q 161 857 178 857 q 124 840 140 857 q 107 803 107 822 l 107 749 l 0 749 l 3 807 z "},"ö":{"ha":642,"x_min":0,"x_max":535,"o":"m 0 428 q 18 506 0 468 q 67 575 36 544 q 135 624 97 606 q 214 642 174 642 l 321 642 q 399 624 361 642 q 468 575 438 606 q 517 506 499 544 q 535 428 535 468 l 535 214 q 517 135 535 174 q 468 67 499 97 q 399 18 438 36 q 321 0 361 0 l 214 0 q 135 18 174 0 q 67 67 97 36 q 18 135 36 97 q 0 214 0 174 l 0 428 m 321 107 q 360 116 342 107 q 394 140 379 125 q 419 175 410 156 q 428 214 428 194 l 428 428 q 419 467 428 449 q 394 501 410 486 q 360 526 379 517 q 321 535 342 535 l 214 535 q 175 526 194 535 q 140 501 156 517 q 116 467 125 486 q 107 428 107 449 l 107 214 q 116 175 107 194 q 140 140 125 156 q 175 116 156 125 q 214 107 194 107 l 321 107 m 164 753 q 126 769 143 753 q 110 806 110 786 q 126 842 110 825 q 163 858 143 858 q 199 841 182 858 q 215 804 215 824 q 198 767 215 783 q 161 750 181 750 l 164 753 m 381 757 q 343 774 360 757 q 326 810 326 790 q 343 846 326 829 q 379 863 360 863 q 415 845 399 863 q 432 808 432 828 q 415 771 432 788 q 378 754 397 754 l 381 757 z "},"÷":{"ha":642,"x_min":0,"x_max":535,"o":"m 0 535 l 535 535 l 535 428 l 0 428 l 0 535 m 271 164 q 233 181 250 164 q 217 217 217 197 q 233 253 217 236 q 269 269 250 269 q 306 252 289 269 q 322 215 322 235 q 305 178 322 194 q 268 161 288 161 l 271 164 m 274 703 q 236 719 253 703 q 219 756 219 736 q 236 792 219 775 q 272 808 253 808 q 308 791 292 808 q 325 754 325 774 q 308 717 325 733 q 271 700 290 700 l 274 703 z "},"ø":{"ha":642,"x_min":0,"x_max":536,"o":"m 0 428 q 18 506 0 468 q 67 575 36 544 q 135 624 97 606 q 214 642 174 642 l 321 642 q 363 638 342 642 l 417 749 l 536 749 l 460 592 q 516 518 496 561 q 536 428 536 475 l 536 214 q 518 135 536 174 q 469 67 500 97 q 401 18 439 36 q 322 0 363 0 l 215 0 q 174 4 194 0 l 119 -107 l 0 -107 l 76 50 q 20 124 40 81 q 0 214 0 167 l 0 428 m 107 214 q 126 153 107 181 l 313 535 l 214 535 q 175 526 194 535 q 140 501 156 517 q 116 467 125 486 q 107 428 107 449 l 107 214 m 428 428 q 408 489 428 461 l 222 107 l 321 107 q 360 116 342 107 q 394 140 379 125 q 419 175 410 156 q 428 214 428 194 l 428 428 z "},"ù":{"ha":642,"x_min":0,"x_max":535,"o":"m 0 642 l 107 642 l 107 214 q 116 175 107 194 q 140 140 125 156 q 175 116 156 125 q 214 107 194 107 l 321 107 q 360 116 342 107 q 394 140 379 125 q 419 175 410 156 q 428 214 428 194 l 428 642 l 535 642 l 535 0 l 428 0 l 428 29 q 321 0 379 0 l 214 0 q 135 18 174 0 q 67 67 97 36 q 18 135 36 97 q 0 214 0 174 l 0 642 m 246 749 l 107 888 l 107 963 l 182 963 l 321 824 l 321 749 l 246 749 z "},"ú":{"ha":642,"x_min":0,"x_max":535,"o":"m 0 642 l 107 642 l 107 214 q 116 175 107 194 q 140 140 125 156 q 175 116 156 125 q 214 107 194 107 l 321 107 q 360 116 342 107 q 394 140 379 125 q 419 175 410 156 q 428 214 428 194 l 428 642 l 535 642 l 535 0 l 428 0 l 428 29 q 321 0 379 0 l 214 0 q 135 18 174 0 q 67 67 97 36 q 18 135 36 97 q 0 214 0 174 l 0 642 m 214 824 l 353 963 l 428 963 l 428 888 l 289 749 l 214 749 l 214 824 z "},"û":{"ha":642,"x_min":0,"x_max":535,"o":"m 0 642 l 107 642 l 107 214 q 116 175 107 194 q 140 140 125 156 q 175 116 156 125 q 214 107 194 107 l 321 107 q 360 116 342 107 q 394 140 379 125 q 419 175 410 156 q 428 214 428 194 l 428 642 l 535 642 l 535 0 l 428 0 l 428 29 q 321 0 379 0 l 214 0 q 135 18 174 0 q 67 67 97 36 q 18 135 36 97 q 0 214 0 174 l 0 642 m 107 804 l 267 964 l 426 803 l 426 749 l 329 749 l 267 811 l 204 749 l 107 749 l 107 804 z "},"ü":{"ha":642,"x_min":0,"x_max":535,"o":"m 0 642 l 107 642 l 107 214 q 116 175 107 194 q 140 140 125 156 q 175 116 156 125 q 214 107 194 107 l 321 107 q 360 116 342 107 q 394 140 379 125 q 419 175 410 156 q 428 214 428 194 l 428 642 l 535 642 l 535 0 l 428 0 l 428 29 q 321 0 379 0 l 214 0 q 135 18 174 0 q 67 67 97 36 q 18 135 36 97 q 0 214 0 174 l 0 642 m 164 753 q 126 769 143 753 q 110 806 110 786 q 126 842 110 825 q 163 858 143 858 q 199 841 182 858 q 215 804 215 824 q 198 767 215 783 q 161 750 181 750 l 164 753 m 381 757 q 343 774 360 757 q 326 810 326 790 q 343 846 326 829 q 379 863 360 863 q 415 845 399 863 q 432 808 432 828 q 415 771 432 788 q 378 754 397 754 l 381 757 z "},"ý":{"ha":642,"x_min":0,"x_max":535,"o":"m 107 0 q 116 -39 107 -19 q 140 -74 125 -58 q 175 -98 156 -89 q 214 -107 194 -107 l 321 -107 q 360 -98 342 -107 q 394 -74 379 -89 q 419 -39 410 -58 q 428 0 428 -19 l 428 136 q 321 107 379 107 l 214 107 q 135 125 174 107 q 67 174 97 143 q 18 242 36 204 q 0 321 0 281 l 0 642 l 107 642 l 107 321 q 116 282 107 301 q 140 247 125 263 q 175 223 156 232 q 214 214 194 214 l 321 214 q 360 223 342 214 q 394 247 379 232 q 419 282 410 263 q 428 321 428 301 l 428 642 l 535 642 l 535 0 q 517 -78 535 -40 q 468 -147 499 -117 q 399 -196 438 -178 q 321 -214 361 -214 l 214 -214 q 135 -196 174 -214 q 67 -147 97 -178 q 18 -78 36 -117 q 0 0 0 -40 l 107 0 m 214 824 l 353 963 l 428 963 l 428 888 l 289 749 l 214 749 l 214 824 z "},"þ":{"ha":642,"x_min":0,"x_max":535,"o":"m 0 856 l 107 856 l 107 517 l 169 579 q 240 625 200 608 q 321 642 279 642 q 399 624 361 642 q 468 575 438 606 q 517 506 499 544 q 535 428 535 468 l 535 214 q 517 135 535 174 q 468 67 499 97 q 399 18 438 36 q 321 0 361 0 q 240 16 279 0 q 169 63 200 32 l 107 125 l 107 -214 l 0 -214 l 0 856 m 246 140 q 281 117 261 125 q 321 108 300 108 q 360 117 342 108 q 394 142 379 126 q 419 176 410 157 q 428 215 428 196 l 428 429 q 419 469 428 450 q 394 503 410 488 q 360 527 379 518 q 321 536 342 536 q 246 504 278 536 l 107 365 l 107 276 l 246 140 z "},"ÿ":{"ha":642,"x_min":0,"x_max":535,"o":"m 107 0 q 116 -39 107 -19 q 140 -74 125 -58 q 175 -98 156 -89 q 214 -107 194 -107 l 321 -107 q 360 -98 342 -107 q 394 -74 379 -89 q 419 -39 410 -58 q 428 0 428 -19 l 428 136 q 321 107 379 107 l 214 107 q 135 125 174 107 q 67 174 97 143 q 18 242 36 204 q 0 321 0 281 l 0 642 l 107 642 l 107 321 q 116 282 107 301 q 140 247 125 263 q 175 223 156 232 q 214 214 194 214 l 321 214 q 360 223 342 214 q 394 247 379 232 q 419 282 410 263 q 428 321 428 301 l 428 642 l 535 642 l 535 0 q 517 -78 535 -40 q 468 -147 499 -117 q 399 -196 438 -178 q 321 -214 361 -214 l 214 -214 q 135 -196 174 -214 q 67 -147 97 -178 q 18 -78 36 -117 q 0 0 0 -40 l 107 0 m 164 753 q 126 769 143 753 q 110 806 110 786 q 126 842 110 825 q 163 858 143 858 q 199 841 182 858 q 215 804 215 824 q 198 767 215 783 q 161 750 181 750 l 164 753 m 381 757 q 343 774 360 757 q 326 810 326 790 q 343 846 326 829 q 379 863 360 863 q 415 845 399 863 q 432 808 432 828 q 415 771 432 788 q 378 754 397 754 l 381 757 z "},"Α":{"ha":642,"x_min":0,"x_max":535,"o":"m 1 688 l 268 954 l 535 686 l 535 0 l 428 0 l 428 321 l 107 321 l 107 0 l 0 0 l 1 688 m 431 431 l 431 644 l 269 804 l 108 643 l 108 429 l 431 431 z "},"Β":{"ha":642,"x_min":0,"x_max":535,"o":"m 0 964 l 321 964 q 399 946 361 964 q 468 897 438 928 q 517 828 499 867 q 535 750 535 790 l 535 643 q 533 581 535 603 q 526 543 532 558 q 504 515 519 528 q 463 482 489 503 q 504 449 489 461 q 526 421 519 436 q 533 383 532 406 q 535 321 535 361 l 535 214 q 517 135 535 174 q 468 67 499 97 q 399 18 438 36 q 321 0 361 0 l 0 0 l 0 964 m 321 108 q 360 117 342 108 q 394 142 379 126 q 419 176 410 157 q 428 215 428 196 l 428 322 q 419 362 428 343 q 394 396 410 381 q 360 420 379 411 q 321 429 342 429 l 107 429 l 107 108 l 321 108 m 321 536 q 360 545 342 536 q 394 569 379 554 q 419 604 410 585 q 428 643 428 624 l 428 750 q 419 790 428 771 q 394 824 410 808 q 360 848 379 839 q 321 857 342 857 l 107 857 l 107 536 l 321 536 z "},"Γ":{"ha":642,"x_min":0,"x_max":535,"o":"m 0 963 l 535 963 l 535 856 l 107 856 l 107 0 l 0 0 l 0 963 z "},"∆":{"ha":642,"x_min":0,"x_max":535,"o":"m 1 107 l 268 963 l 535 107 l 535 0 l 0 0 l 1 107 m 269 621 l 108 107 l 429 107 l 269 621 z "},"Ε":{"ha":642,"x_min":0,"x_max":535,"o":"m 0 963 l 535 963 l 535 856 l 107 856 l 107 535 l 428 535 l 428 428 l 107 428 l 107 107 l 535 107 l 535 0 l 0 0 l 0 963 z "},"Ζ":{"ha":642,"x_min":0,"x_max":535,"o":"m 0 107 l 428 856 l 0 856 l 0 963 l 535 963 l 535 856 l 107 107 l 535 107 l 535 0 l 0 0 l 0 107 z "},"Η":{"ha":642,"x_min":0,"x_max":535,"o":"m 0 963 l 107 963 l 107 535 l 428 535 l 428 963 l 535 963 l 535 0 l 428 0 l 428 428 l 107 428 l 107 0 l 0 0 l 0 963 z "},"Θ":{"ha":642,"x_min":0,"x_max":535,"o":"m 0 749 q 18 827 0 789 q 67 896 36 865 q 135 944 97 926 q 214 963 174 963 l 321 963 q 399 944 361 963 q 468 896 438 926 q 517 827 499 865 q 535 749 535 789 l 535 214 q 517 135 535 174 q 468 67 499 97 q 399 18 438 36 q 321 0 361 0 l 214 0 q 135 18 174 0 q 67 67 97 36 q 18 135 36 97 q 0 214 0 174 l 0 749 m 321 107 q 360 116 342 107 q 394 140 379 125 q 419 175 410 156 q 428 214 428 194 l 428 428 l 107 428 l 107 214 q 116 175 107 194 q 140 140 125 156 q 175 116 156 125 q 214 107 194 107 l 321 107 m 428 535 l 428 749 q 419 788 428 769 q 394 822 410 807 q 360 847 379 838 q 321 856 342 856 l 214 856 q 175 847 194 856 q 140 822 156 838 q 116 788 125 807 q 107 749 107 769 l 107 535 l 428 535 z "},"Ι":{"ha":642,"x_min":107,"x_max":428,"o":"m 107 107 l 214 107 l 214 856 l 107 856 l 107 963 l 428 963 l 428 856 l 321 856 l 321 107 l 428 107 l 428 0 l 107 0 l 107 107 z "},"Κ":{"ha":642,"x_min":0,"x_max":535,"o":"m 0 964 l 107 964 l 107 536 l 428 857 l 428 964 l 535 964 l 535 803 l 214 482 l 535 161 l 535 0 l 428 0 l 428 107 l 107 428 l 107 0 l 0 0 l 0 964 z "},"Λ":{"ha":642,"x_min":0,"x_max":536,"o":"m 269 963 l 536 0 l 425 0 l 268 563 l 111 0 l 0 0 l 269 963 z "},"Μ":{"ha":642,"x_min":0,"x_max":536,"o":"m 3 964 l 136 964 l 269 696 l 403 963 l 536 963 l 536 0 l 429 0 l 429 749 l 268 428 l 107 749 l 107 0 l 0 0 l 3 964 z "},"Ν":{"ha":642,"x_min":0,"x_max":535,"o":"m 0 965 l 107 965 l 428 269 l 428 964 l 535 964 l 535 1 l 428 1 l 107 696 l 107 0 l 0 0 l 0 965 z "},"Ξ":{"ha":642,"x_min":0,"x_max":535,"o":"m 0 214 l 107 214 l 107 107 l 428 107 l 428 214 l 535 214 l 535 0 l 0 0 l 0 214 m 107 535 l 428 535 l 428 428 l 107 428 l 107 535 m 0 963 l 535 963 l 535 749 l 428 749 l 428 856 l 107 856 l 107 749 l 0 749 l 0 963 z "},"Ο":{"ha":642,"x_min":0,"x_max":535,"o":"m 0 749 q 18 827 0 789 q 67 896 36 865 q 135 944 97 926 q 214 963 174 963 l 321 963 q 399 944 361 963 q 468 896 438 926 q 517 827 499 865 q 535 749 535 789 l 535 214 q 517 135 535 174 q 468 67 499 97 q 399 18 438 36 q 321 0 361 0 l 214 0 q 135 18 174 0 q 67 67 97 36 q 18 135 36 97 q 0 214 0 174 l 0 749 m 321 107 q 360 116 342 107 q 394 140 379 125 q 419 175 410 156 q 428 214 428 194 l 428 749 q 419 788 428 769 q 394 822 410 807 q 360 847 379 838 q 321 856 342 856 l 214 856 q 175 847 194 856 q 140 822 156 838 q 116 788 125 807 q 107 749 107 769 l 107 214 q 116 175 107 194 q 140 140 125 156 q 175 116 156 125 q 214 107 194 107 l 321 107 z "},"Π":{"ha":642,"x_min":0,"x_max":535,"o":"m 0 963 l 535 963 l 535 0 l 428 0 l 428 856 l 107 856 l 107 0 l 0 0 l 0 963 z "},"Ρ":{"ha":642,"x_min":0,"x_max":535,"o":"m 0 963 l 321 963 q 399 944 361 963 q 468 896 438 926 q 517 827 499 865 q 535 749 535 789 l 535 642 q 517 563 535 601 q 468 494 499 525 q 399 446 438 464 q 321 428 361 428 l 107 428 l 107 0 l 0 0 l 0 963 m 321 535 q 360 544 342 535 q 394 568 379 553 q 419 603 410 583 q 428 642 428 622 l 428 749 q 419 788 428 769 q 394 822 410 807 q 360 847 379 838 q 321 856 342 856 l 107 856 l 107 535 l 321 535 z "},"Σ":{"ha":642,"x_min":0,"x_max":535,"o":"m 0 110 l 292 483 l 0 857 l 0 964 l 535 964 l 535 857 l 136 857 l 428 482 l 136 107 l 535 107 l 535 0 l 0 0 l 0 110 z "},"Τ":{"ha":642,"x_min":0,"x_max":535,"o":"m 214 856 l 0 856 l 0 963 l 535 963 l 535 856 l 321 856 l 321 0 l 214 0 l 214 856 z "},"Υ":{"ha":642,"x_min":1,"x_max":535,"o":"m 215 483 l 1 964 l 108 964 l 268 603 l 428 964 l 535 964 l 321 482 l 321 0 l 214 0 l 215 483 z "},"Φ":{"ha":642,"x_min":0,"x_max":535,"o":"m 0 642 q 18 720 0 682 q 67 789 36 758 q 135 838 97 819 q 214 856 174 856 l 214 963 l 321 963 l 321 856 q 399 838 361 856 q 468 789 438 819 q 517 720 499 758 q 535 642 535 682 l 535 321 q 517 242 535 281 q 468 174 499 204 q 399 125 438 143 q 321 107 361 107 l 321 0 l 214 0 l 214 107 q 135 125 174 107 q 67 174 97 143 q 18 242 36 204 q 0 321 0 281 l 0 642 m 214 749 q 175 740 194 749 q 140 715 156 731 q 116 681 125 700 q 107 642 107 663 l 107 321 q 116 282 107 301 q 140 247 125 263 q 175 223 156 232 q 214 214 194 214 l 214 749 m 321 214 q 360 223 342 214 q 394 247 379 232 q 419 282 410 263 q 428 321 428 301 l 428 642 q 419 681 428 663 q 394 715 410 700 q 360 740 379 731 q 321 749 342 749 l 321 214 z "},"Χ":{"ha":642,"x_min":0,"x_max":536,"o":"m 3 3 l 217 483 l 3 964 l 110 964 l 269 603 l 429 964 l 536 964 l 322 482 l 536 0 l 429 0 l 268 361 l 107 0 l 0 0 l 3 3 z "},"Ψ":{"ha":642,"x_min":0,"x_max":535,"o":"m 214 321 q 135 339 174 321 q 67 388 97 357 q 18 456 36 418 q 0 535 0 494 l 0 963 l 107 963 l 107 535 q 116 496 107 515 q 140 461 125 476 q 175 437 156 446 q 214 428 194 428 l 214 963 l 321 963 l 321 428 q 360 437 342 428 q 394 461 379 446 q 419 496 410 476 q 428 535 428 515 l 428 963 l 535 963 l 535 535 q 517 456 535 494 q 468 388 499 418 q 399 339 438 357 q 321 321 361 321 l 321 0 l 214 0 l 214 321 z "},"Ω":{"ha":642,"x_min":0,"x_max":535,"o":"m 0 107 l 125 107 l 63 169 q 17 240 33 200 q 0 321 0 279 l 0 749 q 18 827 0 789 q 67 896 36 865 q 135 944 97 926 q 214 963 174 963 l 321 963 q 399 944 361 963 q 468 896 438 926 q 517 827 499 865 q 535 749 535 789 l 535 321 q 519 240 535 279 q 472 169 503 200 l 410 107 l 535 107 l 535 0 l 321 0 l 321 169 l 396 244 q 419 279 411 260 q 428 319 428 299 l 428 747 q 419 787 428 768 q 394 821 410 806 q 360 845 379 836 q 321 854 342 854 l 214 854 q 175 845 194 854 q 140 821 156 836 q 116 787 125 806 q 107 747 107 768 l 107 319 q 139 244 107 276 l 214 169 l 214 0 l 0 0 l 0 107 z "},"α":{"ha":642,"x_min":0,"x_max":535,"o":"m 0 428 q 18 506 0 468 q 67 575 36 544 q 135 624 97 606 q 214 642 174 642 q 322 613 271 642 q 400 535 372 583 l 425 642 l 535 642 l 458 321 l 535 0 l 425 0 l 400 107 q 322 29 372 58 q 214 0 271 0 q 135 18 174 0 q 67 67 97 36 q 18 135 36 97 q 0 214 0 174 l 0 428 m 107 214 q 116 175 107 194 q 140 140 125 156 q 175 116 156 125 q 214 107 194 107 q 280 131 250 107 q 318 189 310 154 l 349 321 l 318 453 q 280 511 310 488 q 214 535 250 535 q 175 526 194 535 q 140 501 156 517 q 116 467 125 486 q 107 428 107 449 l 107 214 z "},"β":{"ha":642,"x_min":0,"x_max":535,"o":"m 0 749 q 18 827 0 789 q 67 896 36 865 q 135 944 97 926 q 214 963 174 963 q 292 944 254 963 q 361 896 331 926 q 410 827 392 865 q 428 749 428 789 q 392 629 428 682 q 449 598 422 618 q 494 551 475 578 q 524 492 514 524 q 535 428 535 461 l 535 214 q 517 135 535 174 q 468 67 499 97 q 399 18 438 36 q 321 0 361 0 q 240 16 279 0 q 169 63 200 32 l 107 125 l 107 -214 l 0 -214 l 0 749 m 107 278 l 246 139 q 281 115 261 124 q 321 107 300 107 q 360 116 342 107 q 394 140 379 125 q 419 175 410 156 q 428 214 428 194 l 428 428 q 419 467 428 449 q 394 501 410 486 q 360 526 379 517 q 321 535 342 535 l 107 535 l 107 278 m 214 643 q 253 652 235 643 q 288 676 272 661 q 312 711 303 692 q 321 750 321 731 q 312 790 321 771 q 288 824 303 808 q 253 848 272 839 q 214 857 235 857 q 175 848 194 857 q 140 824 156 839 q 116 790 125 808 q 107 750 107 771 l 107 643 l 214 643 z "},"γ":{"ha":642,"x_min":0,"x_max":535,"o":"m 111 642 l 233 211 l 418 642 l 535 642 l 281 49 l 317 -78 q 321 -107 321 -93 q 312 -146 321 -126 q 288 -181 303 -165 q 253 -205 272 -196 q 214 -214 235 -214 q 175 -205 194 -214 q 140 -181 156 -196 q 116 -146 125 -165 q 107 -107 107 -126 q 115 -65 107 -86 l 167 56 l 0 642 l 111 642 z "},"δ":{"ha":642,"x_min":0,"x_max":536,"o":"m 3 432 q 14 497 3 465 q 44 556 25 529 q 90 603 64 583 q 149 635 117 624 l 93 661 q 28 721 53 681 q 3 806 3 761 q 17 864 3 835 q 53 915 31 893 q 103 951 75 938 q 163 965 132 965 l 376 965 q 435 951 406 965 q 486 915 464 938 q 522 863 508 892 q 536 804 536 835 l 429 804 q 412 840 429 824 q 375 857 394 857 l 161 857 q 124 840 140 857 q 107 803 107 822 q 138 754 107 768 l 414 621 q 501 542 468 594 q 535 428 535 489 l 535 214 q 517 135 535 174 q 468 67 499 97 q 399 18 438 36 q 321 0 361 0 l 214 0 q 135 18 174 0 q 67 67 97 36 q 18 135 36 97 q 0 214 0 174 l 3 432 m 324 111 q 363 120 344 111 q 397 144 382 129 q 422 179 413 160 q 431 218 431 199 l 431 432 q 422 472 431 453 q 397 506 413 490 q 363 530 382 521 q 324 539 344 539 l 217 539 q 178 530 197 539 q 143 506 158 521 q 119 472 128 490 q 110 432 110 453 l 110 218 q 119 179 110 199 q 143 144 128 160 q 178 120 158 129 q 217 111 197 111 l 324 111 z "},"ε":{"ha":642,"x_min":4,"x_max":538,"o":"m 218 3 q 140 21 178 3 q 71 69 101 39 q 22 138 40 100 q 4 217 4 176 q 19 294 4 257 q 61 361 33 332 q 19 417 33 385 q 4 483 4 449 q 18 542 4 513 q 54 593 32 571 q 105 629 76 615 q 164 643 133 643 l 324 643 q 402 625 364 643 q 471 576 440 607 q 519 508 501 546 q 538 429 538 469 l 431 429 q 422 469 431 450 q 397 503 413 488 q 363 527 382 518 q 324 536 344 536 l 163 536 q 125 519 142 536 q 108 482 108 501 q 125 444 108 461 q 161 428 142 428 l 321 428 l 321 321 l 214 321 q 175 312 194 321 q 140 288 156 303 q 116 253 125 272 q 107 214 107 235 q 116 175 107 194 q 140 140 125 156 q 175 116 156 125 q 214 107 194 107 l 321 107 q 360 116 342 107 q 394 140 379 125 q 419 175 410 156 q 428 214 428 194 l 535 214 q 517 135 535 174 q 468 67 499 97 q 399 18 438 36 q 321 0 361 0 l 218 3 z "},"ζ":{"ha":642,"x_min":0,"x_max":540,"o":"m 6 431 q 63 669 6 556 q 219 858 119 783 l 6 858 l 6 965 l 540 965 l 540 858 q 383 822 460 858 q 247 724 307 785 q 149 588 186 664 q 113 431 113 511 l 113 217 q 122 178 113 197 q 146 143 131 158 q 181 119 161 128 q 219 110 200 110 l 379 110 q 438 96 408 110 q 489 59 467 82 q 525 8 511 36 q 539 -51 539 -21 q 525 -110 539 -82 q 488 -162 511 -139 q 437 -199 465 -185 q 378 -212 408 -212 l 324 -212 l 324 -106 l 376 -106 q 413 -89 396 -106 q 429 -53 429 -72 q 412 -17 429 -33 q 375 0 394 0 l 214 0 q 135 18 174 0 q 67 67 97 36 q 18 135 36 97 q 0 214 0 174 l 6 431 z "},"η":{"ha":642,"x_min":0,"x_max":535,"o":"m 0 642 l 107 642 l 107 613 q 214 642 154 642 l 321 642 q 399 624 361 642 q 468 575 438 606 q 517 506 499 544 q 535 428 535 468 l 535 -214 l 428 -214 l 428 428 q 419 467 428 449 q 394 501 410 486 q 360 526 379 517 q 321 535 342 535 l 214 535 q 175 526 194 535 q 140 501 156 517 q 116 467 125 486 q 107 428 107 449 l 107 0 l 0 0 l 0 642 z "},"θ":{"ha":642,"x_min":0,"x_max":428,"o":"m 0 749 q 18 827 0 789 q 67 896 36 865 q 135 944 97 926 q 214 963 174 963 q 292 944 254 963 q 361 896 331 926 q 410 827 392 865 q 428 749 428 789 l 428 214 q 410 135 428 174 q 361 67 392 97 q 292 18 331 36 q 214 0 254 0 q 135 18 174 0 q 67 67 97 36 q 18 135 36 97 q 0 214 0 174 l 0 749 m 107 214 q 116 175 107 194 q 140 140 125 156 q 175 116 156 125 q 214 107 194 107 q 253 116 235 107 q 288 140 272 125 q 312 175 303 156 q 321 214 321 194 l 321 428 l 107 428 l 107 214 m 321 535 l 321 749 q 312 788 321 769 q 288 822 303 807 q 253 847 272 838 q 214 856 235 856 q 175 847 194 856 q 140 822 156 838 q 116 788 125 807 q 107 749 107 769 l 107 535 l 321 535 z "},"ι":{"ha":642,"x_min":107,"x_max":429,"o":"m 110 647 l 217 647 l 217 165 q 233 128 217 144 q 269 111 250 111 q 306 128 289 111 q 322 164 322 144 l 322 217 l 429 217 l 429 163 q 415 103 429 132 q 378 52 401 75 q 327 15 356 29 q 268 1 299 1 q 209 15 238 1 q 158 51 181 29 q 121 102 135 74 q 107 161 107 131 l 110 647 z "},"κ":{"ha":642,"x_min":0,"x_max":535,"o":"m 0 642 l 107 642 l 107 365 l 383 642 l 535 642 l 214 321 l 535 0 l 383 0 l 107 276 l 107 0 l 0 0 l 0 642 z "},"λ":{"ha":642,"x_min":0,"x_max":536,"o":"m 278 535 l 211 776 q 172 833 201 811 q 108 856 143 856 l 1 856 l 1 963 l 108 963 q 176 951 143 963 q 236 917 208 939 q 284 867 264 896 q 314 806 304 839 l 536 0 l 425 0 l 319 383 l 121 0 l 0 0 l 278 535 z "},"ν":{"ha":642,"x_min":0,"x_max":535,"o":"m 113 642 l 276 150 q 388 278 347 200 q 428 444 428 357 l 428 642 l 535 642 l 535 444 q 510 301 535 371 q 444 172 486 232 q 342 67 401 113 q 214 0 283 22 l 0 642 l 113 642 z "},"ξ":{"ha":642,"x_min":6,"x_max":540,"o":"m 219 3 q 141 21 179 3 q 72 69 103 39 q 24 138 42 100 q 6 217 6 176 q 17 301 6 260 q 51 378 29 342 q 103 446 72 415 q 171 497 133 476 q 128 565 143 526 q 113 644 113 604 q 134 758 113 703 q 194 858 156 814 l 6 858 l 6 965 l 540 965 l 540 858 l 433 858 q 355 840 393 858 q 286 792 317 822 q 238 723 256 761 q 219 644 219 685 q 228 606 219 625 q 253 571 238 586 q 288 547 268 556 q 326 538 307 538 l 433 538 l 433 431 l 326 431 q 248 413 286 431 q 179 364 210 394 q 131 295 149 333 q 113 217 113 257 q 122 178 113 197 q 146 143 131 158 q 181 119 161 128 q 219 110 200 110 l 379 110 q 438 96 408 110 q 489 59 467 82 q 525 8 511 36 q 539 -51 539 -21 q 525 -110 539 -82 q 488 -162 511 -139 q 437 -199 465 -185 q 378 -212 408 -212 l 324 -212 l 324 -106 l 376 -106 q 413 -89 396 -106 q 429 -53 429 -72 q 412 -17 429 -33 q 375 0 394 0 l 219 3 z "},"ο":{"ha":642,"x_min":0,"x_max":535,"o":"m 0 428 q 18 506 0 468 q 67 575 36 544 q 135 624 97 606 q 214 642 174 642 l 321 642 q 399 624 361 642 q 468 575 438 606 q 517 506 499 544 q 535 428 535 468 l 535 214 q 517 135 535 174 q 468 67 499 97 q 399 18 438 36 q 321 0 361 0 l 214 0 q 135 18 174 0 q 67 67 97 36 q 18 135 36 97 q 0 214 0 174 l 0 428 m 321 107 q 360 116 342 107 q 394 140 379 125 q 419 175 410 156 q 428 214 428 194 l 428 428 q 419 467 428 449 q 394 501 410 486 q 360 526 379 517 q 321 535 342 535 l 214 535 q 175 526 194 535 q 140 501 156 517 q 116 467 125 486 q 107 428 107 449 l 107 214 q 116 175 107 194 q 140 140 125 156 q 175 116 156 125 q 214 107 194 107 l 321 107 z "},"π":{"ha":642,"x_min":0,"x_max":535,"o":"m 107 535 l 0 535 l 0 642 l 535 642 l 535 535 l 428 535 l 428 0 l 321 0 l 321 535 l 214 535 l 214 0 l 107 0 l 107 535 z "},"ρ":{"ha":642,"x_min":0,"x_max":535,"o":"m 0 428 q 18 506 0 468 q 67 575 36 544 q 135 624 97 606 q 214 642 174 642 l 321 642 q 399 624 361 642 q 468 575 438 606 q 517 506 499 544 q 535 428 535 468 l 535 214 q 517 135 535 174 q 468 67 499 97 q 399 18 438 36 q 321 0 361 0 l 107 0 l 107 -214 l 0 -214 l 0 428 m 321 107 q 360 116 342 107 q 394 140 379 125 q 419 175 410 156 q 428 214 428 194 l 428 428 q 419 467 428 449 q 394 501 410 486 q 360 526 379 517 q 321 535 342 535 l 214 535 q 175 526 194 535 q 140 501 156 517 q 116 467 125 486 q 107 428 107 449 l 107 107 l 321 107 z "},"ς":{"ha":642,"x_min":0,"x_max":540,"o":"m 6 431 q 24 509 6 471 q 72 578 42 547 q 141 626 103 608 q 219 644 179 644 l 326 644 q 405 626 367 644 q 474 578 443 608 q 522 509 504 547 q 540 431 540 471 l 433 431 q 424 470 433 451 q 400 504 415 489 q 366 528 385 519 q 326 538 347 538 l 219 538 q 181 528 200 538 q 146 504 161 519 q 122 470 131 489 q 113 431 113 451 l 113 217 q 122 178 113 197 q 146 143 131 158 q 181 119 161 128 q 219 110 200 110 l 379 110 q 438 96 408 110 q 489 59 467 82 q 525 8 511 36 q 539 -51 539 -21 q 525 -110 539 -82 q 488 -162 511 -139 q 437 -199 465 -185 q 378 -212 408 -212 l 217 -212 l 217 -106 l 376 -106 q 413 -89 396 -106 q 429 -53 429 -72 q 412 -17 429 -33 q 375 0 394 0 l 214 0 q 135 18 174 0 q 67 67 97 36 q 18 135 36 97 q 0 214 0 174 l 6 431 z "},"σ":{"ha":642,"x_min":0,"x_max":535,"o":"m 0 428 q 18 506 0 468 q 67 575 36 544 q 135 624 97 606 q 214 642 174 642 l 535 642 l 535 535 l 410 535 l 472 472 q 518 402 501 442 q 535 321 535 363 l 535 214 q 517 135 535 174 q 468 67 499 97 q 399 18 438 36 q 321 0 361 0 l 214 0 q 135 18 174 0 q 67 67 97 36 q 18 135 36 97 q 0 214 0 174 l 0 428 m 108 214 q 117 175 108 194 q 142 140 126 156 q 176 116 157 125 q 215 107 196 107 l 322 107 q 362 116 343 107 q 396 140 381 125 q 420 175 411 156 q 429 214 429 194 l 429 321 q 421 361 429 342 q 397 396 413 381 l 258 535 l 214 535 q 175 526 194 535 q 140 501 156 517 q 116 467 125 486 q 107 428 107 449 l 108 214 z "},"τ":{"ha":642,"x_min":0,"x_max":535,"o":"m 0 642 l 535 642 l 535 535 l 321 535 l 321 214 q 330 175 321 194 q 354 140 339 156 q 389 116 369 125 q 428 107 408 107 l 428 0 q 349 18 388 0 q 281 67 311 36 q 232 135 250 97 q 214 214 214 174 l 214 535 l 0 535 l 0 642 z "},"υ":{"ha":642,"x_min":0,"x_max":535,"o":"m 0 642 l 107 642 l 107 214 q 116 175 107 194 q 140 140 125 156 q 175 116 156 125 q 214 107 194 107 l 321 107 q 360 116 342 107 q 394 140 379 125 q 419 175 410 156 q 428 214 428 194 l 428 642 l 535 642 l 535 214 q 517 135 535 174 q 468 67 499 97 q 399 18 438 36 q 321 0 361 0 l 214 0 q 135 18 174 0 q 67 67 97 36 q 18 135 36 97 q 0 214 0 174 l 0 642 z "},"ϕ":{"ha":642,"x_min":0,"x_max":535,"o":"m 1 644 l 108 644 l 108 217 q 117 178 108 197 q 142 143 126 158 q 176 119 157 128 q 215 110 196 110 l 215 483 q 229 542 215 513 q 265 593 243 571 q 316 629 288 615 q 375 643 344 643 q 433 629 404 643 q 485 592 463 615 q 521 541 507 569 q 535 482 535 513 l 535 214 q 517 135 535 174 q 468 67 499 97 q 399 18 438 36 q 321 0 361 0 l 321 -214 l 214 -214 l 214 0 q 135 18 174 0 q 67 67 97 36 q 18 135 36 97 q 0 214 0 174 l 1 644 m 324 113 q 363 122 344 113 q 397 146 382 131 q 422 181 413 161 q 431 219 431 200 l 431 486 q 413 522 431 506 q 376 539 396 539 q 339 522 356 539 q 322 485 322 504 l 324 113 z "},"χ":{"ha":642,"x_min":0,"x_max":536,"o":"m 208 214 l 0 642 l 119 642 l 268 336 l 417 642 l 536 642 l 328 214 l 536 -214 l 417 -214 l 268 92 l 119 -214 l 0 -214 l 208 214 z "},"ψ":{"ha":642,"x_min":0,"x_max":535,"o":"m 0 642 l 107 642 l 107 214 q 116 175 107 194 q 140 140 125 156 q 175 116 156 125 q 214 107 194 107 l 214 642 l 321 642 l 321 107 q 360 116 342 107 q 394 140 379 125 q 419 175 410 156 q 428 214 428 194 l 428 642 l 535 642 l 535 214 q 517 135 535 174 q 468 67 499 97 q 399 18 438 36 q 321 0 361 0 l 321 -214 l 214 -214 l 214 0 q 135 18 174 0 q 67 67 97 36 q 18 135 36 97 q 0 214 0 174 l 0 642 z "},"ω":{"ha":642,"x_min":0,"x_max":536,"o":"m 7 497 q 23 578 7 539 q 69 649 39 618 l 144 574 q 121 539 129 558 q 113 499 113 519 l 113 168 q 129 131 113 147 q 165 114 146 114 q 201 131 185 114 q 218 167 218 147 l 218 326 l 325 326 l 325 165 q 342 128 325 144 q 378 111 358 111 q 414 128 397 111 q 431 164 431 144 l 431 494 q 422 535 431 515 q 399 569 414 554 l 474 644 q 519 574 503 614 q 536 493 536 535 l 536 163 q 522 103 536 132 q 485 52 508 75 q 434 15 463 29 q 375 1 406 1 q 318 12 346 1 q 268 42 290 22 q 218 12 246 22 q 161 1 190 1 q 102 15 131 1 q 51 51 74 29 q 14 102 28 74 q 0 161 0 131 l 7 497 z "},"Ё":{"ha":642,"x_min":0,"x_max":535,"o":"m 0 749 l 535 749 l 535 642 l 107 642 l 107 428 l 428 428 l 428 321 l 107 321 l 107 107 l 535 107 l 535 0 l 0 0 l 0 749 m 164 860 q 126 876 143 860 q 110 913 110 893 q 126 949 110 932 q 163 965 143 965 q 199 948 182 965 q 215 911 215 931 q 198 874 215 890 q 161 857 181 857 l 164 860 m 381 864 q 343 881 360 864 q 326 917 326 897 q 343 953 326 936 q 379 969 360 969 q 415 952 399 969 q 432 915 432 935 q 415 878 432 894 q 378 861 397 861 l 381 864 z "},"А":{"ha":642,"x_min":0,"x_max":535,"o":"m 1 688 l 268 954 l 535 686 l 535 0 l 428 0 l 428 321 l 107 321 l 107 0 l 0 0 l 1 688 m 431 431 l 431 644 l 269 804 l 108 643 l 108 429 l 431 431 z "},"Б":{"ha":642,"x_min":0,"x_max":535,"o":"m 0 963 l 428 963 l 428 856 l 107 856 l 107 535 l 321 535 q 399 517 361 535 q 468 468 438 499 q 517 399 499 438 q 535 321 535 361 l 535 214 q 517 135 535 174 q 468 67 499 97 q 399 18 438 36 q 321 0 361 0 l 0 0 l 0 963 m 321 107 q 360 116 342 107 q 394 140 379 125 q 419 175 410 156 q 428 214 428 194 l 428 321 q 419 360 428 342 q 394 394 410 379 q 360 419 379 410 q 321 428 342 428 l 107 428 l 107 107 l 321 107 z "},"В":{"ha":642,"x_min":0,"x_max":535,"o":"m 0 964 l 321 964 q 399 946 361 964 q 468 897 438 928 q 517 828 499 867 q 535 750 535 790 l 535 643 q 533 581 535 603 q 526 543 532 558 q 504 515 519 528 q 463 482 489 503 q 504 449 489 461 q 526 421 519 436 q 533 383 532 406 q 535 321 535 361 l 535 214 q 517 135 535 174 q 468 67 499 97 q 399 18 438 36 q 321 0 361 0 l 0 0 l 0 964 m 321 108 q 360 117 342 108 q 394 142 379 126 q 419 176 410 157 q 428 215 428 196 l 428 322 q 419 362 428 343 q 394 396 410 381 q 360 420 379 411 q 321 429 342 429 l 107 429 l 107 108 l 321 108 m 321 536 q 360 545 342 536 q 394 569 379 554 q 419 604 410 585 q 428 643 428 624 l 428 750 q 419 790 428 771 q 394 824 410 808 q 360 848 379 839 q 321 857 342 857 l 107 857 l 107 536 l 321 536 z "},"Г":{"ha":642,"x_min":0,"x_max":535,"o":"m 0 963 l 535 963 l 535 856 l 107 856 l 107 0 l 0 0 l 0 963 z "},"Д":{"ha":642,"x_min":0,"x_max":535,"o":"m 0 107 q 40 116 21 107 q 74 140 58 125 q 98 175 89 156 q 107 214 107 194 l 107 963 l 535 963 l 535 -107 l 428 -107 l 428 0 l 107 0 l 107 -107 l 0 -107 l 0 107 m 428 107 l 428 856 l 214 856 l 214 214 q 206 158 214 186 q 185 107 199 131 l 428 107 z "},"Е":{"ha":642,"x_min":0,"x_max":535,"o":"m 0 963 l 535 963 l 535 856 l 107 856 l 107 535 l 428 535 l 428 428 l 107 428 l 107 107 l 535 107 l 535 0 l 0 0 l 0 963 z "},"Ж":{"ha":642,"x_min":0,"x_max":535,"o":"m 107 483 l 0 964 l 110 964 l 214 494 l 214 964 l 321 964 l 321 494 l 425 964 l 535 964 l 428 482 l 535 0 l 425 0 l 321 469 l 321 0 l 214 0 l 214 469 l 110 0 l 0 0 l 107 483 z "},"З":{"ha":642,"x_min":0,"x_max":535,"o":"m 107 215 q 116 176 107 196 q 140 142 125 157 q 175 117 156 126 q 214 108 194 108 l 321 108 q 360 117 342 108 q 394 142 379 126 q 419 176 410 157 q 428 215 428 196 l 428 322 q 419 362 428 343 q 394 396 410 381 q 360 420 379 411 q 321 429 342 429 l 214 429 l 214 536 l 321 536 q 360 545 342 536 q 394 569 379 554 q 419 604 410 585 q 428 643 428 624 l 428 750 q 419 790 428 771 q 394 824 410 808 q 360 848 379 839 q 321 857 342 857 l 214 857 q 175 848 194 857 q 140 824 156 839 q 116 790 125 808 q 107 750 107 771 l 0 750 q 18 828 0 790 q 67 897 36 867 q 135 946 97 928 q 214 964 174 964 l 321 964 q 399 946 361 964 q 468 897 438 928 q 517 828 499 867 q 535 750 535 790 l 535 643 q 516 555 535 597 q 463 482 497 513 q 516 409 497 451 q 535 321 535 367 l 535 214 q 517 135 535 174 q 468 67 499 97 q 399 18 438 36 q 321 0 361 0 l 214 0 q 135 18 174 0 q 67 67 97 36 q 18 135 36 97 q 0 214 0 174 l 107 215 z "},"И":{"ha":642,"x_min":0,"x_max":535,"o":"m 0 963 l 107 963 l 107 246 l 418 963 l 535 963 l 535 0 l 428 0 l 428 717 l 117 0 l 0 0 l 0 963 z "},"Й":{"ha":642,"x_min":0,"x_max":535,"o":"m 0 856 l 107 856 l 107 219 l 415 856 l 535 856 l 535 0 l 428 0 l 428 636 l 119 0 l 0 0 l 0 856 m 107 1176 q 116 1138 107 1157 q 140 1103 125 1118 q 175 1078 156 1088 q 214 1069 194 1069 l 321 1069 q 360 1078 342 1069 q 394 1103 379 1088 q 419 1138 410 1118 q 428 1176 428 1157 l 535 1176 q 517 1098 535 1136 q 468 1029 499 1060 q 399 981 438 999 q 321 963 361 963 l 214 963 q 135 981 174 963 q 67 1029 97 999 q 18 1098 36 1060 q 0 1176 0 1136 l 107 1176 z "},"К":{"ha":642,"x_min":0,"x_max":535,"o":"m 0 964 l 107 964 l 107 536 l 428 857 l 428 964 l 535 964 l 535 803 l 214 482 l 535 161 l 535 0 l 428 0 l 428 107 l 107 428 l 107 0 l 0 0 l 0 964 z "},"Л":{"ha":642,"x_min":0,"x_max":535,"o":"m 0 107 q 40 116 21 107 q 74 140 58 125 q 98 175 89 156 q 107 214 107 194 l 107 963 l 535 963 l 535 0 l 428 0 l 428 856 l 214 856 l 214 214 q 196 135 214 174 q 147 67 178 97 q 78 18 117 36 q 0 0 40 0 l 0 107 z "},"М":{"ha":642,"x_min":0,"x_max":536,"o":"m 3 964 l 136 964 l 269 696 l 403 963 l 536 963 l 536 0 l 429 0 l 429 749 l 268 428 l 107 749 l 107 0 l 0 0 l 3 964 z "},"Н":{"ha":642,"x_min":0,"x_max":535,"o":"m 0 963 l 107 963 l 107 535 l 428 535 l 428 963 l 535 963 l 535 0 l 428 0 l 428 428 l 107 428 l 107 0 l 0 0 l 0 963 z "},"О":{"ha":642,"x_min":0,"x_max":535,"o":"m 0 749 q 18 827 0 789 q 67 896 36 865 q 135 944 97 926 q 214 963 174 963 l 321 963 q 399 944 361 963 q 468 896 438 926 q 517 827 499 865 q 535 749 535 789 l 535 214 q 517 135 535 174 q 468 67 499 97 q 399 18 438 36 q 321 0 361 0 l 214 0 q 135 18 174 0 q 67 67 97 36 q 18 135 36 97 q 0 214 0 174 l 0 749 m 321 107 q 360 116 342 107 q 394 140 379 125 q 419 175 410 156 q 428 214 428 194 l 428 749 q 419 788 428 769 q 394 822 410 807 q 360 847 379 838 q 321 856 342 856 l 214 856 q 175 847 194 856 q 140 822 156 838 q 116 788 125 807 q 107 749 107 769 l 107 214 q 116 175 107 194 q 140 140 125 156 q 175 116 156 125 q 214 107 194 107 l 321 107 z "},"П":{"ha":642,"x_min":0,"x_max":535,"o":"m 0 963 l 535 963 l 535 0 l 428 0 l 428 856 l 107 856 l 107 0 l 0 0 l 0 963 z "},"Р":{"ha":642,"x_min":0,"x_max":535,"o":"m 0 963 l 321 963 q 399 944 361 963 q 468 896 438 926 q 517 827 499 865 q 535 749 535 789 l 535 642 q 517 563 535 601 q 468 494 499 525 q 399 446 438 464 q 321 428 361 428 l 107 428 l 107 0 l 0 0 l 0 963 m 321 535 q 360 544 342 535 q 394 568 379 553 q 419 603 410 583 q 428 642 428 622 l 428 749 q 419 788 428 769 q 394 822 410 807 q 360 847 379 838 q 321 856 342 856 l 107 856 l 107 535 l 321 535 z "},"С":{"ha":642,"x_min":0,"x_max":535,"o":"m 0 749 q 18 827 0 789 q 67 896 36 865 q 135 944 97 926 q 214 963 174 963 l 321 963 q 399 944 361 963 q 468 896 438 926 q 517 827 499 865 q 535 749 535 789 l 428 749 q 419 788 428 769 q 394 822 410 807 q 360 847 379 838 q 321 856 342 856 l 214 856 q 175 847 194 856 q 140 822 156 838 q 116 788 125 807 q 107 749 107 769 l 107 214 q 116 175 107 194 q 140 140 125 156 q 175 116 156 125 q 214 107 194 107 l 321 107 q 360 116 342 107 q 394 140 379 125 q 419 175 410 156 q 428 214 428 194 l 535 214 q 517 135 535 174 q 468 67 499 97 q 399 18 438 36 q 321 0 361 0 l 214 0 q 135 18 174 0 q 67 67 97 36 q 18 135 36 97 q 0 214 0 174 l 0 749 z "},"Т":{"ha":642,"x_min":0,"x_max":535,"o":"m 214 856 l 0 856 l 0 963 l 535 963 l 535 856 l 321 856 l 321 0 l 214 0 l 214 856 z "},"У":{"ha":642,"x_min":0,"x_max":535,"o":"m 107 214 q 116 175 107 194 q 140 140 125 156 q 175 116 156 125 q 214 107 194 107 l 321 107 q 360 116 342 107 q 394 140 379 125 q 419 175 410 156 q 428 214 428 194 l 428 321 l 214 321 q 135 339 174 321 q 67 388 97 357 q 18 456 36 418 q 0 535 0 494 l 0 963 l 107 963 l 107 535 q 116 496 107 515 q 140 461 125 476 q 175 437 156 446 q 214 428 194 428 l 428 428 l 428 963 l 535 963 l 535 214 q 517 135 535 174 q 468 67 499 97 q 399 18 438 36 q 321 0 361 0 l 214 0 q 135 18 174 0 q 67 67 97 36 q 18 135 36 97 q 0 214 0 174 l 107 214 z "},"Ф":{"ha":642,"x_min":0,"x_max":535,"o":"m 0 642 q 18 720 0 682 q 67 789 36 758 q 135 838 97 819 q 214 856 174 856 l 214 963 l 321 963 l 321 856 q 399 838 361 856 q 468 789 438 819 q 517 720 499 758 q 535 642 535 682 l 535 321 q 517 242 535 281 q 468 174 499 204 q 399 125 438 143 q 321 107 361 107 l 321 0 l 214 0 l 214 107 q 135 125 174 107 q 67 174 97 143 q 18 242 36 204 q 0 321 0 281 l 0 642 m 214 749 q 175 740 194 749 q 140 715 156 731 q 116 681 125 700 q 107 642 107 663 l 107 321 q 116 282 107 301 q 140 247 125 263 q 175 223 156 232 q 214 214 194 214 l 214 749 m 321 214 q 360 223 342 214 q 394 247 379 232 q 419 282 410 263 q 428 321 428 301 l 428 642 q 419 681 428 663 q 394 715 410 700 q 360 740 379 731 q 321 749 342 749 l 321 214 z "},"Х":{"ha":642,"x_min":0,"x_max":536,"o":"m 3 3 l 217 483 l 3 964 l 110 964 l 269 603 l 429 964 l 536 964 l 322 482 l 536 0 l 429 0 l 268 361 l 107 0 l 0 0 l 3 3 z "},"Ц":{"ha":642,"x_min":0,"x_max":535,"o":"m 0 963 l 107 963 l 107 107 l 321 107 l 321 963 l 428 963 l 428 107 l 535 107 l 535 -107 l 428 -107 l 428 0 l 0 0 l 0 963 z "},"Ч":{"ha":642,"x_min":0,"x_max":535,"o":"m 428 428 l 214 428 q 135 446 174 428 q 67 494 97 464 q 18 563 36 525 q 0 642 0 601 l 0 963 l 107 963 l 107 642 q 116 603 107 622 q 140 568 125 583 q 175 544 156 553 q 214 535 194 535 l 428 535 l 428 963 l 535 963 l 535 0 l 428 0 l 428 428 z "},"Ш":{"ha":642,"x_min":0,"x_max":535,"o":"m 0 963 l 107 963 l 107 107 l 214 107 l 214 963 l 321 963 l 321 107 l 428 107 l 428 963 l 535 963 l 535 0 l 0 0 l 0 963 z "},"Щ":{"ha":642,"x_min":0,"x_max":535,"o":"m 0 963 l 107 963 l 107 107 l 214 107 l 214 963 l 321 963 l 321 107 l 428 107 l 428 963 l 535 963 l 535 -107 l 428 -107 l 428 0 l 0 0 l 0 963 z "},"Ъ":{"ha":642,"x_min":0,"x_max":535,"o":"m 0 963 l 214 963 l 214 535 l 321 535 q 399 517 361 535 q 468 468 438 499 q 517 399 499 438 q 535 321 535 361 l 535 214 q 517 135 535 174 q 468 67 499 97 q 399 18 438 36 q 321 0 361 0 l 107 0 l 107 856 l 0 856 l 0 963 m 321 107 q 360 116 342 107 q 394 140 379 125 q 419 175 410 156 q 428 214 428 194 l 428 321 q 419 360 428 342 q 394 394 410 379 q 360 419 379 410 q 321 428 342 428 l 214 428 l 214 107 l 321 107 z "},"Ы":{"ha":642,"x_min":0,"x_max":535,"o":"m 0 963 l 107 963 l 107 535 q 185 517 147 535 q 254 468 224 499 q 303 399 285 438 q 321 321 321 361 l 321 214 q 303 135 321 174 q 254 67 285 97 q 185 18 224 36 q 107 0 147 0 l 0 0 l 0 963 m 107 107 q 147 116 128 107 q 181 140 165 125 q 205 175 196 156 q 214 214 214 194 l 214 321 q 205 360 214 342 q 181 394 196 379 q 147 419 165 410 q 107 428 128 428 l 107 107 m 428 963 l 535 963 l 535 0 l 428 0 l 428 963 z "},"Ь":{"ha":642,"x_min":0,"x_max":535,"o":"m 0 963 l 107 963 l 107 535 l 321 535 q 399 517 361 535 q 468 468 438 499 q 517 399 499 438 q 535 321 535 361 l 535 214 q 517 135 535 174 q 468 67 499 97 q 399 18 438 36 q 321 0 361 0 l 0 0 l 0 963 m 321 107 q 360 116 342 107 q 394 140 379 125 q 419 175 410 156 q 428 214 428 194 l 428 321 q 419 360 428 342 q 394 394 410 379 q 360 419 379 410 q 321 428 342 428 l 107 428 l 107 107 l 321 107 z "},"Э":{"ha":642,"x_min":0,"x_max":535,"o":"m 0 107 l 214 107 q 292 125 254 107 q 361 174 331 143 q 410 242 392 204 q 428 321 428 281 l 428 428 l 107 428 l 107 535 l 428 535 l 428 642 q 410 720 428 682 q 361 789 392 758 q 292 838 331 819 q 214 856 254 856 l 0 856 l 0 963 l 214 963 q 332 935 274 963 q 435 863 390 907 q 507 760 479 818 q 535 642 535 701 l 535 321 q 507 203 535 261 q 435 101 479 146 q 332 28 390 56 q 214 0 274 0 l 0 0 l 0 107 z "},"Ю":{"ha":642,"x_min":0,"x_max":536,"o":"m 3 967 l 110 967 l 110 539 l 217 539 l 217 806 q 231 864 217 835 q 267 915 244 893 q 317 951 289 938 q 376 965 346 965 q 435 951 406 965 q 486 915 464 938 q 522 863 508 892 q 536 804 536 835 l 536 163 q 522 103 536 132 q 485 52 508 75 q 434 15 463 29 q 375 1 406 1 q 316 15 344 1 q 265 51 288 29 q 228 102 242 74 q 214 161 214 131 l 214 428 l 107 428 l 107 0 l 0 0 l 3 967 m 326 168 q 343 131 326 147 q 379 114 360 114 q 415 131 399 114 q 432 167 432 147 l 432 808 q 415 844 432 828 q 378 861 397 861 q 340 844 357 861 q 324 807 324 826 l 326 168 z "},"Я":{"ha":642,"x_min":0,"x_max":535,"o":"m 0 151 l 276 428 l 214 428 q 135 446 174 428 q 67 494 97 464 q 18 563 36 525 q 0 642 0 601 l 0 749 q 18 827 0 789 q 67 896 36 865 q 135 944 97 926 q 214 963 174 963 l 535 963 l 535 0 l 428 0 l 428 428 l 107 107 l 107 0 l 0 0 l 0 151 m 428 856 l 214 856 q 175 847 194 856 q 140 822 156 838 q 116 788 125 807 q 107 749 107 769 l 107 642 q 116 603 107 622 q 140 568 125 583 q 175 544 156 553 q 214 535 194 535 l 428 535 l 428 856 z "},"а":{"ha":642,"x_min":0,"x_max":535,"o":"m 214 0 q 135 18 174 0 q 67 67 97 36 q 18 135 36 97 q 0 214 0 174 q 18 292 0 254 q 67 361 36 331 q 135 410 97 392 q 214 428 174 428 l 428 428 q 419 467 428 449 q 394 501 410 486 q 360 526 379 517 q 321 535 342 535 l 107 535 l 107 642 l 321 642 q 399 624 361 642 q 468 575 438 606 q 517 506 499 544 q 535 428 535 468 l 535 0 l 214 0 m 428 321 l 214 321 q 175 312 194 321 q 140 288 156 303 q 116 253 125 272 q 107 214 107 235 q 116 175 107 194 q 140 140 125 156 q 175 116 156 125 q 214 107 194 107 l 428 107 l 428 321 z "},"б":{"ha":642,"x_min":0,"x_max":535,"o":"m 0 642 q 18 720 0 682 q 67 789 36 758 q 135 838 97 819 q 214 856 174 856 l 321 856 q 360 865 342 856 q 394 889 379 874 q 419 924 410 904 q 428 963 428 943 l 535 963 q 517 884 535 922 q 468 815 499 846 q 399 767 438 785 q 321 749 361 749 l 214 749 q 175 740 194 749 q 140 715 156 731 q 116 681 125 700 q 107 642 107 663 l 321 642 q 399 624 361 642 q 468 575 438 606 q 517 506 499 544 q 535 428 535 468 l 535 214 q 517 135 535 174 q 468 67 499 97 q 399 18 438 36 q 321 0 361 0 l 214 0 q 135 18 174 0 q 67 67 97 36 q 18 135 36 97 q 0 214 0 174 l 0 642 m 321 107 q 360 116 342 107 q 394 140 379 125 q 419 175 410 156 q 428 214 428 194 l 428 428 q 419 467 428 449 q 394 501 410 486 q 360 526 379 517 q 321 535 342 535 l 107 535 l 107 214 q 116 175 107 194 q 140 140 125 156 q 175 116 156 125 q 214 107 194 107 l 321 107 z "},"в":{"ha":642,"x_min":0,"x_max":535,"o":"m 1 642 l 375 642 q 433 628 404 642 q 485 591 463 614 q 521 540 507 568 q 535 481 535 511 q 519 414 535 446 q 478 358 504 382 q 520 292 506 329 q 535 214 535 254 q 517 135 535 174 q 468 67 499 97 q 399 18 438 36 q 321 0 361 0 l 0 0 l 1 642 m 322 107 q 362 116 343 107 q 396 140 381 125 q 420 175 411 156 q 429 214 429 194 q 420 253 429 235 q 396 288 411 272 q 362 312 381 303 q 322 321 343 321 l 108 321 l 108 107 l 322 107 m 378 429 q 414 446 397 429 q 431 482 431 463 q 413 518 431 501 q 376 535 396 535 l 108 535 l 108 428 l 378 429 z "},"г":{"ha":642,"x_min":0,"x_max":535,"o":"m 0 642 l 535 642 l 535 535 l 107 535 l 107 0 l 0 0 l 0 642 z "},"д":{"ha":642,"x_min":0,"x_max":535,"o":"m 0 107 q 40 116 21 107 q 74 140 58 125 q 98 175 89 156 q 107 214 107 194 l 107 642 l 535 642 l 535 -107 l 428 -107 l 428 0 l 107 0 l 107 -107 l 0 -107 l 0 107 m 428 107 l 428 535 l 214 535 l 214 214 q 206 158 214 186 q 185 107 199 131 l 428 107 z "},"е":{"ha":642,"x_min":0,"x_max":535,"o":"m 214 0 q 135 18 174 0 q 67 67 97 36 q 18 135 36 97 q 0 214 0 174 l 0 428 q 18 506 0 468 q 67 575 36 544 q 135 624 97 606 q 214 642 174 642 l 321 642 q 399 624 361 642 q 468 575 438 606 q 517 506 499 544 q 535 428 535 468 l 535 321 l 107 321 l 107 214 q 116 175 107 194 q 140 140 125 156 q 175 116 156 125 q 214 107 194 107 l 321 107 q 360 116 342 107 q 394 140 379 125 q 419 175 410 156 q 428 214 428 194 l 535 214 q 517 135 535 174 q 468 67 499 97 q 399 18 438 36 q 321 0 361 0 l 214 0 m 428 428 q 419 467 428 449 q 394 501 410 486 q 360 526 379 517 q 321 535 342 535 l 214 535 q 175 526 194 535 q 140 501 156 517 q 116 467 125 486 q 107 428 107 449 l 428 428 z "},"ж":{"ha":642,"x_min":0,"x_max":535,"o":"m 107 321 l 0 642 l 113 642 l 214 338 l 214 642 l 321 642 l 321 338 l 422 642 l 535 642 l 428 321 l 535 0 l 422 0 l 321 304 l 321 0 l 214 0 l 214 304 l 113 0 l 0 0 l 107 321 z "},"з":{"ha":642,"x_min":0,"x_max":535,"o":"m 111 215 q 120 176 111 196 q 144 142 129 157 q 179 117 160 126 q 218 108 199 108 l 325 108 q 365 117 346 108 q 399 142 383 126 q 423 176 414 157 q 432 215 432 196 q 423 255 432 236 q 399 289 414 274 q 365 313 383 304 q 325 322 346 322 l 218 322 l 218 429 l 378 429 q 414 446 397 429 q 431 482 431 463 q 413 518 431 501 q 376 535 396 535 l 215 535 q 176 526 196 535 q 142 501 157 517 q 117 467 126 486 q 108 428 108 449 l 1 428 q 19 506 1 468 q 68 575 38 544 q 137 624 99 606 q 215 642 175 642 l 375 642 q 433 628 404 642 q 485 591 463 614 q 521 540 507 568 q 535 481 535 511 q 519 414 535 446 q 478 358 504 382 q 520 292 506 329 q 535 214 535 254 q 517 135 535 174 q 468 67 499 97 q 399 18 438 36 q 321 0 361 0 l 214 0 q 135 18 174 0 q 67 67 97 36 q 18 135 36 97 q 0 214 0 174 l 111 215 z "},"и":{"ha":642,"x_min":0,"x_max":535,"o":"m 0 642 l 107 642 l 107 168 l 408 642 l 535 642 l 535 0 l 428 0 l 428 474 l 126 0 l 0 0 l 0 642 z "},"й":{"ha":642,"x_min":0,"x_max":535,"o":"m 0 642 l 107 642 l 107 168 l 408 642 l 535 642 l 535 0 l 428 0 l 428 474 l 126 0 l 0 0 l 0 642 m 107 963 q 116 924 107 943 q 140 889 125 904 q 175 865 156 874 q 214 856 194 856 l 321 856 q 360 865 342 856 q 394 889 379 874 q 419 924 410 904 q 428 963 428 943 l 535 963 q 517 884 535 922 q 468 815 499 846 q 399 767 438 785 q 321 749 361 749 l 214 749 q 135 767 174 749 q 67 815 97 785 q 18 884 36 846 q 0 963 0 922 l 107 963 z "},"к":{"ha":642,"x_min":0,"x_max":535,"o":"m 0 642 l 107 642 l 107 365 l 383 642 l 535 642 l 214 321 l 535 0 l 383 0 l 107 276 l 107 0 l 0 0 l 0 642 z "},"л":{"ha":642,"x_min":0,"x_max":535,"o":"m 0 107 q 40 116 21 107 q 74 140 58 125 q 98 175 89 156 q 107 214 107 194 l 107 642 l 535 642 l 535 0 l 428 0 l 428 535 l 214 535 l 214 214 q 196 135 214 174 q 147 67 178 97 q 78 18 117 36 q 0 0 40 0 l 0 107 z "},"м":{"ha":642,"x_min":0,"x_max":536,"o":"m 0 642 l 126 642 l 268 415 l 410 642 l 536 642 l 536 0 l 429 0 l 429 471 l 268 214 l 107 471 l 107 0 l 0 0 l 0 642 z "},"н":{"ha":642,"x_min":0,"x_max":535,"o":"m 0 642 l 107 642 l 107 428 l 428 428 l 428 642 l 535 642 l 535 0 l 428 0 l 428 321 l 107 321 l 107 0 l 0 0 l 0 642 z "},"о":{"ha":642,"x_min":0,"x_max":535,"o":"m 0 428 q 18 506 0 468 q 67 575 36 544 q 135 624 97 606 q 214 642 174 642 l 321 642 q 399 624 361 642 q 468 575 438 606 q 517 506 499 544 q 535 428 535 468 l 535 214 q 517 135 535 174 q 468 67 499 97 q 399 18 438 36 q 321 0 361 0 l 214 0 q 135 18 174 0 q 67 67 97 36 q 18 135 36 97 q 0 214 0 174 l 0 428 m 321 107 q 360 116 342 107 q 394 140 379 125 q 419 175 410 156 q 428 214 428 194 l 428 428 q 419 467 428 449 q 394 501 410 486 q 360 526 379 517 q 321 535 342 535 l 214 535 q 175 526 194 535 q 140 501 156 517 q 116 467 125 486 q 107 428 107 449 l 107 214 q 116 175 107 194 q 140 140 125 156 q 175 116 156 125 q 214 107 194 107 l 321 107 z "},"п":{"ha":642,"x_min":0,"x_max":535,"o":"m 0 642 l 535 642 l 535 0 l 428 0 l 428 535 l 107 535 l 107 0 l 0 0 l 0 642 z "},"р":{"ha":642,"x_min":0,"x_max":535,"o":"m 0 642 l 321 642 q 399 624 361 642 q 468 575 438 606 q 517 506 499 544 q 535 428 535 468 l 535 321 q 517 242 535 281 q 468 174 499 204 q 399 125 438 143 q 321 107 361 107 l 107 107 l 107 -214 l 0 -214 l 0 642 m 321 214 q 360 223 342 214 q 394 247 379 232 q 419 282 410 263 q 428 321 428 301 l 428 428 q 419 467 428 449 q 394 501 410 486 q 360 526 379 517 q 321 535 342 535 l 107 535 l 107 214 l 321 214 z "},"с":{"ha":642,"x_min":0,"x_max":535,"o":"m 0 428 q 18 506 0 468 q 67 575 36 544 q 135 624 97 606 q 214 642 174 642 l 321 642 q 399 624 361 642 q 468 575 438 606 q 517 506 499 544 q 535 428 535 468 l 428 428 q 419 467 428 449 q 394 501 410 486 q 360 526 379 517 q 321 535 342 535 l 214 535 q 175 526 194 535 q 140 501 156 517 q 116 467 125 486 q 107 428 107 449 l 107 214 q 116 175 107 194 q 140 140 125 156 q 175 116 156 125 q 214 107 194 107 l 321 107 q 360 116 342 107 q 394 140 379 125 q 419 175 410 156 q 428 214 428 194 l 535 214 q 517 135 535 174 q 468 67 499 97 q 399 18 438 36 q 321 0 361 0 l 214 0 q 135 18 174 0 q 67 67 97 36 q 18 135 36 97 q 0 214 0 174 l 0 428 z "},"т":{"ha":642,"x_min":0,"x_max":535,"o":"m 214 535 l 0 535 l 0 642 l 535 642 l 535 535 l 321 535 l 321 0 l 214 0 l 214 535 z "},"у":{"ha":642,"x_min":0,"x_max":535,"o":"m 107 0 q 116 -39 107 -19 q 140 -74 125 -58 q 175 -98 156 -89 q 214 -107 194 -107 l 321 -107 q 360 -98 342 -107 q 394 -74 379 -89 q 419 -39 410 -58 q 428 0 428 -19 l 428 136 q 321 107 379 107 l 214 107 q 135 125 174 107 q 67 174 97 143 q 18 242 36 204 q 0 321 0 281 l 0 642 l 107 642 l 107 321 q 116 282 107 301 q 140 247 125 263 q 175 223 156 232 q 214 214 194 214 l 321 214 q 360 223 342 214 q 394 247 379 232 q 419 282 410 263 q 428 321 428 301 l 428 642 l 535 642 l 535 0 q 517 -78 535 -40 q 468 -147 499 -117 q 399 -196 438 -178 q 321 -214 361 -214 l 214 -214 q 135 -196 174 -214 q 67 -147 97 -178 q 18 -78 36 -117 q 0 0 0 -40 l 107 0 z "},"ф":{"ha":642,"x_min":0,"x_max":535,"o":"m 0 428 q 18 506 0 468 q 67 575 36 544 q 135 624 97 606 q 214 642 174 642 l 214 963 l 321 963 l 321 642 q 399 624 361 642 q 468 575 438 606 q 517 506 499 544 q 535 428 535 468 l 535 214 q 517 135 535 174 q 468 67 499 97 q 399 18 438 36 q 321 0 361 0 l 321 -214 l 214 -214 l 214 0 q 135 18 174 0 q 67 67 97 36 q 18 135 36 97 q 0 214 0 174 l 0 428 m 214 535 q 175 526 194 535 q 140 501 156 517 q 116 467 125 486 q 107 428 107 449 l 107 214 q 116 175 107 194 q 140 140 125 156 q 175 116 156 125 q 214 107 194 107 l 214 535 m 321 107 q 360 116 342 107 q 394 140 379 125 q 419 175 410 156 q 428 214 428 194 l 428 428 q 419 467 428 449 q 394 501 410 486 q 360 526 379 517 q 321 535 342 535 l 321 107 z "},"х":{"ha":642,"x_min":0,"x_max":536,"o":"m 217 321 l 3 642 l 110 642 l 269 401 l 429 642 l 536 642 l 322 321 l 536 0 l 429 0 l 268 240 l 107 0 l 0 0 l 217 321 z "},"ц":{"ha":642,"x_min":0,"x_max":535,"o":"m 0 642 l 107 642 l 107 107 l 321 107 l 321 642 l 428 642 l 428 107 l 535 107 l 535 -107 l 428 -107 l 428 0 l 0 0 l 0 642 z "},"ч":{"ha":642,"x_min":0,"x_max":535,"o":"m 428 214 l 214 214 q 135 232 174 214 q 67 281 97 250 q 18 349 36 311 q 0 428 0 388 l 0 642 l 107 642 l 107 428 q 116 389 107 408 q 140 354 125 369 q 175 330 156 339 q 214 321 194 321 l 428 321 l 428 642 l 535 642 l 535 0 l 428 0 l 428 214 z "},"ш":{"ha":642,"x_min":0,"x_max":535,"o":"m 0 642 l 107 642 l 107 107 l 214 107 l 214 642 l 321 642 l 321 107 l 428 107 l 428 642 l 535 642 l 535 0 l 0 0 l 0 642 z "},"щ":{"ha":642,"x_min":0,"x_max":535,"o":"m 0 642 l 107 642 l 107 107 l 214 107 l 214 642 l 321 642 l 321 107 l 428 107 l 428 642 l 535 642 l 535 -107 l 428 -107 l 428 0 l 0 0 l 0 642 z "},"ъ":{"ha":642,"x_min":0,"x_max":535,"o":"m 0 642 l 214 642 l 214 428 l 321 428 q 399 410 361 428 q 468 361 438 392 q 517 292 499 331 q 535 214 535 254 q 517 135 535 174 q 468 67 499 97 q 399 18 438 36 q 321 0 361 0 l 107 0 l 107 535 l 0 535 l 0 642 m 321 107 q 360 116 342 107 q 394 140 379 125 q 419 175 410 156 q 428 214 428 194 q 419 253 428 235 q 394 288 410 272 q 360 312 379 303 q 321 321 342 321 l 214 321 l 214 107 l 321 107 z "},"ы":{"ha":642,"x_min":0,"x_max":535,"o":"m 0 642 l 107 642 l 107 428 q 185 410 147 428 q 254 361 224 392 q 303 292 285 331 q 321 214 321 254 q 303 135 321 174 q 254 67 285 97 q 185 18 224 36 q 107 0 147 0 l 0 0 l 0 642 m 107 107 q 147 116 128 107 q 181 140 165 125 q 205 175 196 156 q 214 214 214 194 q 205 253 214 235 q 181 288 196 272 q 147 312 165 303 q 107 321 128 321 l 107 107 m 428 642 l 535 642 l 535 0 l 428 0 l 428 642 z "},"ь":{"ha":642,"x_min":0,"x_max":535,"o":"m 0 642 l 107 642 l 107 428 l 321 428 q 399 410 361 428 q 468 361 438 392 q 517 292 499 331 q 535 214 535 254 q 517 135 535 174 q 468 67 499 97 q 399 18 438 36 q 321 0 361 0 l 0 0 l 0 642 m 321 107 q 360 116 342 107 q 394 140 379 125 q 419 175 410 156 q 428 214 428 194 q 419 253 428 235 q 394 288 410 272 q 360 312 379 303 q 321 321 342 321 l 107 321 l 107 107 l 321 107 z "},"э":{"ha":642,"x_min":0,"x_max":535,"o":"m 0 107 l 321 107 q 360 116 342 107 q 394 140 379 125 q 419 175 410 156 q 428 214 428 194 l 428 321 l 214 321 l 214 428 l 428 428 q 419 467 428 449 q 394 501 410 486 q 360 526 379 517 q 321 535 342 535 l 0 535 l 0 642 l 321 642 q 399 624 361 642 q 468 575 438 606 q 517 506 499 544 q 535 428 535 468 l 535 214 q 517 135 535 174 q 468 67 499 97 q 399 18 438 36 q 321 0 361 0 l 0 0 l 0 107 z "},"ю":{"ha":642,"x_min":0,"x_max":536,"o":"m 3 646 l 110 646 l 110 325 l 217 325 l 217 485 q 231 543 217 514 q 267 594 244 572 q 317 631 289 617 q 376 644 346 644 q 435 631 406 644 q 486 594 464 617 q 522 542 508 571 q 536 483 536 514 l 536 163 q 522 103 536 132 q 485 52 508 75 q 434 15 463 29 q 375 1 406 1 q 316 15 344 1 q 265 51 288 29 q 228 102 242 74 q 214 161 214 131 l 214 214 l 107 214 l 107 0 l 0 0 l 3 646 m 326 168 q 343 131 326 147 q 379 114 360 114 q 415 131 399 114 q 432 167 432 147 l 432 488 q 415 524 432 507 q 378 540 397 540 q 340 523 357 540 q 324 486 324 506 l 326 168 z "},"я":{"ha":642,"x_min":0,"x_max":536,"o":"m 150 224 q 91 254 118 233 q 44 302 64 275 q 13 362 24 329 q 1 428 1 394 q 19 506 1 468 q 68 575 38 544 q 137 624 99 606 q 215 642 175 642 l 536 642 l 536 0 l 429 0 l 429 214 l 272 214 l 129 0 l 0 0 l 150 224 m 429 321 l 429 535 l 215 535 q 176 526 196 535 q 142 501 157 517 q 117 467 126 486 q 108 428 108 449 q 117 389 108 408 q 142 354 126 369 q 176 330 157 339 q 215 321 196 321 l 429 321 z "},"ё":{"ha":642,"x_min":0,"x_max":535,"o":"m 214 0 q 135 18 174 0 q 67 67 97 36 q 18 135 36 97 q 0 214 0 174 l 0 428 q 18 506 0 468 q 67 575 36 544 q 135 624 97 606 q 214 642 174 642 l 321 642 q 399 624 361 642 q 468 575 438 606 q 517 506 499 544 q 535 428 535 468 l 535 321 l 107 321 l 107 214 q 116 175 107 194 q 140 140 125 156 q 175 116 156 125 q 214 107 194 107 l 321 107 q 360 116 342 107 q 394 140 379 125 q 419 175 410 156 q 428 214 428 194 l 535 214 q 517 135 535 174 q 468 67 499 97 q 399 18 438 36 q 321 0 361 0 l 214 0 m 428 428 q 419 467 428 449 q 394 501 410 486 q 360 526 379 517 q 321 535 342 535 l 214 535 q 175 526 194 535 q 140 501 156 517 q 116 467 125 486 q 107 428 107 449 l 428 428 m 164 753 q 126 769 143 753 q 110 806 110 786 q 126 842 110 825 q 163 858 143 858 q 199 841 182 858 q 215 804 215 824 q 198 767 215 783 q 161 750 181 750 l 164 753 m 381 757 q 343 774 360 757 q 326 810 326 790 q 343 846 326 829 q 379 863 360 863 q 415 845 399 863 q 432 808 432 828 q 415 771 432 788 q 378 754 397 754 l 381 757 z "},"€":{"ha":642,"x_min":0,"x_max":535,"o":"m 107 321 l 0 321 l 0 428 l 107 428 l 107 535 l 0 535 l 0 642 l 107 642 l 107 749 q 125 827 107 789 q 174 896 143 865 q 242 944 204 926 q 321 963 281 963 l 535 963 l 535 856 l 321 856 q 282 847 301 856 q 247 822 263 838 q 223 788 232 807 q 214 749 214 769 l 214 642 l 428 642 l 428 535 l 214 535 l 214 428 l 428 428 l 428 321 l 214 321 l 214 214 q 223 175 214 194 q 247 140 232 156 q 282 116 263 125 q 321 107 301 107 l 535 107 l 535 0 l 321 0 q 242 18 281 0 q 174 67 204 36 q 125 135 143 97 q 107 214 107 174 l 107 321 z "},"\"":{"ha":642,"x_min":107,"x_max":428,"o":"m 107 963 l 214 963 l 214 642 l 107 642 l 107 963 m 321 963 l 428 963 l 428 642 l 321 642 l 321 963 z "},"!":{"ha":642,"x_min":217,"x_max":325,"o":"m 271 4 q 233 21 250 4 q 217 57 217 38 q 233 93 217 76 q 269 110 250 110 q 306 92 289 110 q 322 56 322 75 q 305 18 322 35 q 268 1 288 1 l 271 4 m 218 968 l 325 968 l 325 219 l 218 219 l 218 968 z "}}}
